<?xml version="1.0" encoding="UTF-8" standalone="no"?>
<!-- Created with Inkscape (http://www.inkscape.org/) -->

<svg
   xmlns:dc="http://purl.org/dc/elements/1.1/"
   xmlns:cc="http://creativecommons.org/ns#"
   xmlns:rdf="http://www.w3.org/1999/02/22-rdf-syntax-ns#"
   xmlns:svg="http://www.w3.org/2000/svg"
   xmlns="http://www.w3.org/2000/svg"
   xmlns:sodipodi="http://sodipodi.sourceforge.net/DTD/sodipodi-0.dtd"
   xmlns:inkscape="http://www.inkscape.org/namespaces/inkscape"
   id="svg2"
   version="1.1"
   inkscape:version="0.48.1 r9760"
   width="765"
   height="990"
   xml:space="preserve"
   sodipodi:docname="ajray-resume.svg"><metadata
     id="metadata8"><rdf:RDF><cc:Work
         rdf:about=""><dc:format>image/svg+xml</dc:format><dc:type
           rdf:resource="http://purl.org/dc/dcmitype/StillImage" /><dc:title /></cc:Work></rdf:RDF></metadata><defs
     id="defs6" /><sodipodi:namedview
     pagecolor="#ffffff"
     bordercolor="#666666"
     borderopacity="1"
     objecttolerance="10"
     gridtolerance="10"
     guidetolerance="10"
     inkscape:pageopacity="0"
     inkscape:pageshadow="2"
     inkscape:window-width="1600"
     inkscape:window-height="876"
     id="namedview4"
     showgrid="false"
     inkscape:zoom="0.91423907"
     inkscape:cx="461.22234"
     inkscape:cy="275.06049"
     inkscape:window-x="0"
     inkscape:window-y="24"
     inkscape:window-maximized="1"
     inkscape:current-layer="g10" /><g
     id="g10"
     inkscape:groupmode="layer"
     inkscape:label="ajray-resume"
     transform="matrix(1.25,0,0,-1.25,0,990)"><path
   style="fill:#4080bf;fill-opacity:0.94117647"
   d="m 365.57726,685.20993 c -0.0792,0.20645 -0.10884,3.86535 -0.0658,8.1309 l 0.0782,7.75554 8.05296,0 8.05297,0 0,-8.05296 0,-8.05297 -7.98714,-0.0779 c -6.28203,-0.0613 -8.01788,0.002 -8.13116,0.29741 z m 13.77561,7.83348 0,5.71028 -5.71028,0 -5.71028,0 -0.0801,-5.40802 c -0.044,-2.97442 -0.0141,-5.57985 0.0665,-5.78984 0.11492,-0.29947 1.36368,-0.36466 5.79035,-0.30226 l 5.64382,0.0796 0,5.71029 z m -9.0942,-3.13782 c -0.0835,0.21751 -0.11395,1.77022 -0.0677,3.45045 l 0.084,3.05497 3.3676,0 3.3676,0 0,-3.3676 0,-3.3676 -3.29988,-0.0829 c -2.5594,-0.0643 -3.33394,0.006 -3.45164,0.31264 z m 25.84622,-4.87795 c -0.11376,0.11376 -0.20683,0.64054 -0.20683,1.17063 l 0,0.9638 -2.26948,0.0855 -2.26947,0.0855 -0.14642,3.36761 -0.14642,3.3676 -2.19626,0.14642 -2.19626,0.14641 0,2.19627 0,2.19626 2.19626,0 2.19626,0 0.14642,-1.02492 c 0.13015,-0.91105 0.2603,-1.04119 1.17134,-1.17134 l 1.02493,-0.14642 0.14642,-2.19626 0.14641,-2.19626 1.08551,-0.0901 1.08551,-0.0901 0.0858,2.28639 0.0858,2.2864 1.08145,0.0899 c 1.01609,0.0845 1.08688,0.15525 1.17134,1.17134 0.0823,0.99035 0.17623,1.09378 1.11481,1.22787 l 1.02493,0.14641 0,2.19627 0,2.19626 -1.07947,0.0898 c -1.05727,0.0879 -1.08136,0.0668 -1.17134,-1.02492 -0.0869,-1.05404 -0.15072,-1.11959 -1.17332,-1.20459 -1.01609,-0.0845 -1.08688,-0.15525 -1.17134,-1.17134 -0.0851,-1.02359 -0.14472,-1.08145 -1.11481,-1.08145 -0.9701,0 -1.02974,0.0579 -1.11482,1.08145 -0.0845,1.01609 -0.15525,1.08688 -1.17134,1.17134 -1.0236,0.0851 -1.08145,0.14472 -1.08145,1.11482 0,0.97009 0.0578,1.02973 1.08145,1.11481 1.01609,0.0845 1.08688,0.15526 1.17134,1.17134 0.085,1.0226 0.15055,1.08645 1.20459,1.17333 1.09177,0.09 1.11285,0.11407 1.02492,1.17134 l -0.0898,1.07946 -2.19626,0.14642 -2.19627,0.14641 -0.0909,1.09814 c -0.0881,1.06461 -0.12556,1.09813 -1.22688,1.09813 -1.10131,0 -1.13876,-0.0335 -1.22687,-1.09813 l -0.0909,-1.09814 -2.2864,-0.0858 -2.28639,-0.0858 0.0901,-1.0855 0.0901,-1.08551 2.19626,-0.14642 2.19627,-0.14642 0,-1.02492 c 0,-0.94823 -0.0767,-1.03588 -1.02493,-1.17134 -0.91104,-0.13015 -1.04119,-0.2603 -1.17134,-1.17134 -0.13546,-0.94823 -0.22311,-1.02492 -1.17134,-1.02492 -0.94822,0 -1.03588,0.0767 -1.17134,1.02492 l -0.14641,1.02492 -4.53895,0.14642 -4.53894,0.14642 -0.0899,1.08145 c -0.0845,1.01608 -0.15525,1.08688 -1.17134,1.17133 -1.0176,0.0846 -1.08678,0.15419 -1.17179,1.17888 l -0.0903,1.08899 -3.42368,0.0824 -3.42368,0.0824 0,1.02493 0,1.02492 2.19626,0.14642 2.19627,0.14641 0.14642,1.02493 c 0.13545,0.94822 0.22311,1.02492 1.17133,1.02492 l 1.02493,0 0.0852,-2.25251 0.0852,-2.25251 1.08611,-0.0902 c 1.02797,-0.0853 1.09104,-0.14986 1.178,-1.20487 0.09,-1.09176 0.11407,-1.11284 1.17134,-1.02492 0.9881,0.0822 1.09186,0.17652 1.22588,1.1147 0.13456,0.94192 0.23535,1.03228 1.24455,1.11581 1.06462,0.0881 1.09813,0.12556 1.09813,1.22687 0,1.10131 -0.0335,1.13876 -1.09813,1.22687 l -1.09813,0.0909 0,3.36761 0,3.3676 1.08145,0.0899 c 1.01609,0.0845 1.08688,0.15525 1.17134,1.17134 l 0.0899,1.08145 2.19627,0.14642 2.19626,0.14641 0.0901,1.08552 0.0901,1.0855 -2.28639,0.0858 -2.2864,0.0858 -0.0909,1.09814 c -0.0882,1.06557 -0.12472,1.09813 -1.23223,1.09813 l -1.14134,0 -0.0855,-2.26947 -0.0855,-2.26948 -2.25737,-0.0853 -2.25737,-0.0853 -0.0853,-2.25737 -0.0853,-2.25737 -1.02493,0 c -0.94822,0 -1.03588,0.0767 -1.17133,1.02492 l -0.14642,1.02492 -2.19627,0.14642 -2.19626,0.14642 0,1.02492 c 0,0.94823 0.0767,1.03587 1.02492,1.17134 l 1.02492,0.14641 0.0852,2.25108 0.0852,2.25109 -1.11012,0.0916 c -1.05603,0.0871 -1.11012,0.14154 -1.11012,1.11653 0,0.97611 0.0488,1.02492 1.02492,1.02492 0.97575,0 1.02933,-0.0535 1.1168,-1.1147 0.09,-1.09176 0.11408,-1.11285 1.17134,-1.02492 l 1.07947,0.0898 0,3.36761 0,3.3676 -1.02493,0.14642 c -0.94822,0.13546 -1.02492,0.22311 -1.02492,1.17134 l 0,1.02492 2.19627,0 2.19626,0 0.14641,-1.02492 c 0.13015,-0.91105 0.2603,-1.04119 1.17134,-1.17134 l 1.02493,-0.14642 0.0825,-3.44081 0.0825,-3.44081 1.14973,0 1.14973,0 0.0855,2.26947 0.0855,2.26947 2.19626,0 2.19627,0 0.0899,-1.08145 c 0.0845,-1.01609 0.15525,-1.08688 1.17134,-1.17134 l 1.08145,-0.0899 0.0855,-2.26947 0.0855,-2.26947 2.33036,0 2.33036,0 0,1.15366 c 0,1.12174 -0.0304,1.15618 -1.09813,1.24455 -1.04247,0.0863 -1.09813,0.14283 -1.09813,1.11581 0,0.97009 0.0578,1.02973 1.08145,1.11481 1.01609,0.0845 1.08688,0.15525 1.17134,1.17134 0.0823,0.99035 0.17623,1.09379 1.11481,1.22787 0.94193,0.13456 1.03229,0.23534 1.11581,1.24454 l 0.0909,1.09814 -2.34268,0 -2.34268,0 -0.0909,-1.09814 c -0.0863,-1.04246 -0.14283,-1.09812 -1.11581,-1.09812 -0.97611,0 -1.02492,0.0488 -1.02492,1.02492 0,0.97297 0.0556,1.02953 1.09813,1.1158 1.06461,0.0881 1.09813,0.12557 1.09813,1.22688 0,1.10131 -0.0335,1.13876 -1.09813,1.22687 l -1.09813,0.0909 0,3.36761 0,3.3676 1.02492,0.14642 c 0.94823,0.13546 1.02493,0.22311 1.02493,1.17134 0,0.94823 -0.0767,1.03587 -1.02493,1.17134 -0.94822,0.13546 -1.02492,0.22311 -1.02492,1.17134 l 0,1.02492 2.25251,0.0852 2.25251,0.0852 0.0902,1.08612 0.0902,1.08612 2.19626,0 2.19627,0 0.14642,-1.02492 c 0.13419,-0.9394 0.23699,-1.03244 1.23192,-1.11505 l 1.08551,-0.0901 0.0858,2.2864 0.0858,2.28639 1.08145,0.0899 c 1.01609,0.0845 1.08688,0.15525 1.17134,1.17134 l 0.0899,1.08145 3.3676,0 3.3676,0 0,-1.02492 c 0,-0.94823 -0.0767,-1.03588 -1.02492,-1.17134 -0.91104,-0.13015 -1.04119,-0.2603 -1.17134,-1.17134 -0.13546,-0.94823 -0.22311,-1.02493 -1.17134,-1.02493 -0.94823,0 -1.03587,0.0767 -1.17134,1.02493 -0.1342,0.9394 -0.23699,1.03244 -1.23193,1.11505 l -1.0855,0.0901 -0.0858,-2.2864 -0.0858,-2.2864 -1.09814,-0.0909 -1.09812,-0.0909 0,-2.34268 0,-2.34268 1.09812,0.0909 c 1.00921,0.0835 1.10999,0.17389 1.24455,1.11581 0.13015,0.91104 0.2603,1.04119 1.17134,1.17134 0.91105,0.13015 1.0412,0.2603 1.17134,1.17134 0.13547,0.94823 0.22311,1.02492 1.17134,1.02492 0.94823,0 1.03588,-0.0767 1.17134,-1.02492 0.13547,-0.94823 0.22311,-1.02492 1.17134,-1.02492 l 1.02492,0 0.14642,2.19626 0.14642,2.19626 2.2864,0.0858 2.28639,0.0858 -0.0901,1.08551 c -0.0826,0.99494 -0.17566,1.09773 -1.11505,1.23193 -0.94823,0.13546 -1.02493,0.22311 -1.02493,1.17134 l 0,1.02492 2.19626,0 2.19627,0 0,-2.19626 0,-2.19627 -1.1147,-0.0919 c -1.09177,-0.09 -1.11285,-0.11407 -1.02492,-1.17134 0.0822,-0.9881 0.17652,-1.09185 1.11469,-1.22588 0.94823,-0.13546 1.02493,-0.22311 1.02493,-1.17134 l 0,-1.02492 -2.19627,-0.14642 -2.19626,-0.14642 -0.14641,-1.02492 -0.14642,-1.02492 -3.36761,-0.14642 -3.3676,-0.14642 -0.0807,-4.63028 -0.0807,-4.63027 1.10566,0.0913 c 1.01771,0.0841 1.1173,0.17286 1.25207,1.11626 l 0.14642,1.02492 2.19626,0.14642 2.19627,0.14641 0.14642,2.19627 0.14641,2.19626 1.02493,0 1.02492,0 0.14641,-2.19626 0.14642,-2.19627 1.08551,-0.0901 1.08551,-0.0901 0.0858,2.2864 0.0858,2.28639 1.02492,0 1.02493,0 0,-2.19626 0,-2.19627 -1.08145,-0.0899 c -1.01609,-0.0844 -1.08688,-0.15525 -1.17134,-1.17134 -0.0823,-0.99034 -0.17624,-1.09378 -1.11482,-1.22786 -0.93817,-0.13402 -1.03252,-0.23778 -1.11469,-1.22589 -0.0879,-1.05726 -0.0668,-1.08135 1.02492,-1.17134 1.06121,-0.0875 1.1147,-0.14104 1.1147,-1.11679 0,-0.97298 -0.0556,-1.02953 -1.09814,-1.11581 -1.06461,-0.0881 -1.09813,-0.12556 -1.09813,-1.22687 0,-1.10132 0.0335,-1.13876 1.09813,-1.22687 1.00921,-0.0835 1.10999,-0.17388 1.24455,-1.11581 0.13421,-0.9394 0.23699,-1.03245 1.23193,-1.11506 l 1.08551,-0.0901 0.0858,2.2864 0.0858,2.28639 2.19626,0 2.19627,0 0.14642,-1.02492 c 0.13014,-0.91104 0.26029,-1.04119 1.17134,-1.17134 0.94822,-0.13546 1.02492,-0.22312 1.02492,-1.17134 0,-0.94823 -0.0767,-1.03588 -1.02492,-1.17134 -0.93818,-0.13403 -1.03253,-0.23778 -1.1147,-1.22588 -0.0879,-1.05727 -0.0668,-1.08136 1.02492,-1.17134 1.06074,-0.0874 1.11914,-0.14583 1.20657,-1.20658 0.09,-1.09176 0.11408,-1.11284 1.17134,-1.02492 l 1.07947,0.0898 0.0806,4.59403 0.0806,4.59404 -1.10547,0.0913 c -1.04506,0.0863 -1.11041,0.15084 -1.19582,1.18031 l -0.0903,1.08899 -3.42368,0.0824 -3.42368,0.0824 0,1.02492 c 0,0.94823 0.0767,1.03588 1.02492,1.17134 0.91104,0.13015 1.0412,0.26029 1.17134,1.17134 l 0.14642,1.02492 2.19627,0 2.19626,0 0.0855,-2.26947 0.0855,-2.26947 1.1467,0 1.14671,0 0.0855,2.26947 0.0855,2.26947 1.02492,0 c 0.94823,0 1.03588,-0.0767 1.17134,-1.02492 l 0.14642,-1.02492 3.36761,-0.14642 3.3676,-0.14642 0,-2.19626 0,-2.19626 -1.02492,0 c -0.94823,0 -1.03589,0.0767 -1.17134,1.02492 l -0.14642,1.02492 -3.44081,0.0825 -3.44082,0.0825 0,-1.16296 c 0,-1.13248 0.0288,-1.16534 1.09814,-1.25384 l 1.09813,-0.0909 0.14641,-3.3676 0.14642,-3.36761 2.19626,0 2.19627,0 0.0898,1.07947 c 0.0879,1.05727 0.0668,1.08136 -1.02492,1.17134 -1.06122,0.0875 -1.1147,0.14105 -1.1147,1.1168 0,0.97611 0.0488,1.02492 1.02493,1.02492 0.97009,0 1.02972,-0.0578 1.11481,-1.08145 0.0845,-1.01609 0.15525,-1.08688 1.17134,-1.17134 l 1.08145,-0.0899 0,-2.19626 0,-2.19626 -1.02492,-0.14642 c -0.91105,-0.13015 -1.0412,-0.2603 -1.17134,-1.17134 -0.13547,-0.94823 -0.22311,-1.02492 -1.17134,-1.02492 -0.94824,0 -1.03588,0.0767 -1.17135,1.02492 -0.13546,0.94823 -0.22311,1.02492 -1.17134,1.02492 -0.94823,0 -1.03587,-0.0767 -1.17134,-1.02492 l -0.14641,-1.02492 -2.26028,-0.0854 -2.26029,-0.0854 -0.0824,-3.42866 -0.0824,-3.42866 -1.1147,-0.0919 c -1.09176,-0.09 -1.11285,-0.11407 -1.02492,-1.17134 l 0.0898,-1.07946 2.19627,0 2.19626,0 0.14641,1.02492 c 0.13409,0.93858 0.23753,1.03249 1.22787,1.11481 1.01609,0.0845 1.08688,0.15525 1.17134,1.17134 0.0851,1.0236 0.14472,1.08145 1.11481,1.08145 0.97612,0 1.02492,-0.0488 1.02492,-1.02492 0,-0.97452 -0.0544,-1.02942 -1.10726,-1.11636 l -1.10727,-0.0914 0.0823,-3.42259 0.0824,-3.42258 1.02492,-0.14642 c 0.94514,-0.13502 1.03208,-0.23318 1.1168,-1.26112 0.09,-1.09176 0.11408,-1.11285 1.17134,-1.02492 l 1.07947,0.0898 0.0852,2.25109 0.0852,2.25107 -1.11012,0.0916 c -1.05603,0.0871 -1.11012,0.14153 -1.11012,1.11652 0,0.97611 0.0488,1.02492 1.02493,1.02492 0.97009,0 1.02972,-0.0578 1.11481,-1.08145 0.0845,-1.01608 0.15525,-1.08688 1.17134,-1.17134 l 1.08145,-0.0899 0,-3.36761 0,-3.3676 -2.19626,0 -2.19627,0 -0.0919,1.1147 c -0.09,1.09177 -0.11408,1.11285 -1.17134,1.02492 -0.98811,-0.0822 -1.09186,-0.17652 -1.22589,-1.11469 -0.13014,-0.91105 -0.26029,-1.04119 -1.17134,-1.17134 l -1.02492,-0.14642 0,-2.19626 0,-2.19626 1.07947,-0.0898 c 1.05726,-0.0879 1.08135,-0.0668 1.17134,1.02492 l 0.0919,1.1147 2.19626,0 2.19627,0 0.14642,-1.02492 c 0.13014,-0.91104 0.26029,-1.0412 1.17134,-1.17134 0.94822,-0.13547 1.02492,-0.22311 1.02492,-1.17134 l 0,-1.02492 -2.19626,0 -2.19627,0 -0.14642,1.02492 c -0.13419,0.9394 -0.23699,1.03244 -1.23192,1.11506 l -1.08551,0.0901 -0.0858,-2.2864 -0.0858,-2.2864 -1.08145,-0.0899 c -1.01609,-0.0845 -1.08688,-0.15525 -1.17134,-1.17134 l -0.0899,-1.08145 -2.19626,0 -2.19627,0 -0.0909,1.09814 -0.0909,1.09812 -2.30733,0 -2.30732,0 -0.0909,-1.09812 -0.0909,-1.09814 -2.19627,0 -2.19626,0 0,1.02493 0,1.02492 2.2864,0.0858 2.28639,0.0858 -0.0901,1.08551 c -0.0826,0.99493 -0.17565,1.09773 -1.11506,1.23193 -0.91104,0.13015 -1.04119,0.2603 -1.17134,1.17134 l -0.14641,1.02492 -3.3676,0 -3.36761,0 -0.14642,-3.36761 -0.14642,-3.3676 -1.02492,0 c -0.94823,0 -1.03587,0.0767 -1.17134,1.02493 -0.13402,0.93817 -0.23778,1.03252 -1.22588,1.11469 -1.05726,0.0879 -1.08136,0.0668 -1.17134,-1.02492 l -0.0919,-1.1147 -2.06264,-0.0848 c -1.13446,-0.0467 -2.15572,0.008 -2.26947,0.12201 z m 4.47852,3.31273 c 0,1.12174 0.0304,1.15618 1.09814,1.24455 l 1.09812,0.0909 0,2.19626 0,2.19626 -1.08144,0.0899 c -1.01609,0.0845 -1.08689,0.15525 -1.17134,1.17134 -0.085,1.02303 -0.15024,1.08642 -1.20682,1.17346 l -1.11693,0.092 0.092,-1.11692 c 0.0873,-1.06002 0.14797,-1.12157 1.19015,-1.20782 l 1.09812,-0.0909 0,-2.34268 0,-2.34268 -1.09812,0.0909 c -1.00921,0.0835 -1.11,0.17388 -1.24456,1.11581 -0.13456,0.94192 -0.23534,1.03228 -1.24455,1.1158 l -1.09812,0.0909 0,-2.36035 0,-2.36037 2.34267,0 2.34268,0 0,1.15367 z m 23.37128,-0.0555 -0.0909,1.09813 -2.25737,0.0853 -2.25738,0.0853 -0.0853,2.25737 -0.0853,2.25737 -1.02492,0 -1.02493,0 0,-2.19626 0,-2.19626 1.09813,-0.0909 c 1.06775,-0.0884 1.09814,-0.12281 1.09814,-1.24455 l 0,-1.15366 2.36035,0 2.36036,0 -0.0909,1.09813 z m -16.48965,9.44393 c 0,0.94823 -0.0767,1.03588 -1.02492,1.17134 -0.9444,0.13491 -1.03213,0.23369 -1.11657,1.2572 l -0.0916,1.11078 2.2879,-0.0859 2.28791,-0.0859 0.14641,-1.02492 c 0.13547,-0.94823 0.22312,-1.02493 1.17134,-1.02493 l 1.02493,0 0,3.36761 0,3.3676 -1.09814,0.0909 c -1.06461,0.0881 -1.09813,0.12555 -1.09813,1.22687 0,1.10132 0.0335,1.13876 1.09813,1.22687 l 1.09814,0.0909 0.14641,3.3676 0.14642,3.3676 1.02492,0.14642 1.02493,0.14642 0.0855,2.26947 0.0855,2.26947 1.1467,0 1.14671,0 0.0855,-2.26947 0.0855,-2.26947 2.26947,-0.0855 2.26948,-0.0855 0,1.16598 c 0,1.13597 -0.0282,1.16831 -1.09814,1.25686 -1.03849,0.0859 -1.10306,0.15052 -1.18902,1.18902 -0.0881,1.06461 -0.12555,1.09813 -1.22686,1.09813 -1.10132,0 -1.13876,0.0335 -1.22688,1.09813 -0.0859,1.0385 -0.15052,1.10307 -1.18901,1.18902 l -1.09814,0.0909 0,-1.17134 c 0,-1.14217 -0.0273,-1.1736 -1.09813,-1.26222 -1.0092,-0.0835 -1.10999,-0.17389 -1.24455,-1.11581 -0.13546,-0.94823 -0.22311,-1.02492 -1.17134,-1.02492 l -1.02492,0 -0.0824,3.42368 -0.0824,3.42368 -1.08898,0.0903 c -1.02803,0.0853 -1.09408,0.1518 -1.17988,1.18847 l -0.0909,1.09813 1.18902,0 1.18901,0 0,1.17134 c 0,1.16835 -0.003,1.17134 -1.15366,1.17134 -1.12174,0 -1.15618,0.0304 -1.24455,1.09813 -0.0863,1.04247 -0.14283,1.09813 -1.1158,1.09813 -0.9701,0 -1.02974,-0.0579 -1.11482,-1.08145 -0.0845,-1.01608 -0.15526,-1.08688 -1.17134,-1.17134 -0.99035,-0.0823 -1.09378,-0.17623 -1.22787,-1.11481 -0.13014,-0.91104 -0.26029,-1.04119 -1.17134,-1.17134 l -1.02492,-0.14642 0,-4.53894 0,-4.53894 1.02492,-0.14642 1.02492,-0.14642 0,-2.19626 0,-2.19626 -1.07946,-0.0898 c -1.05726,-0.0879 -1.08136,-0.0668 -1.17134,1.02493 -0.087,1.055 -0.15003,1.11952 -1.178,1.20486 l -1.08611,0.0902 -0.0852,2.25251 -0.0852,2.25251 -1.1147,0.0919 c -1.09176,0.09 -1.11285,0.11408 -1.02492,1.17134 0.0822,0.9881 0.17652,1.09186 1.11469,1.22588 l 1.02493,0.14642 0,2.19626 0,2.19626 -4.61216,0.0806 -4.61215,0.0806 0,-1.1611 c 0,-1.13033 0.0291,-1.1635 1.09814,-1.25198 1.03849,-0.086 1.10306,-0.15052 1.18901,-1.18902 l 0.0909,-1.09813 -1.2067,0 -1.20669,0 0.0909,-1.09813 c 0.0859,-1.0385 0.15051,-1.10307 1.18901,-1.18902 1.06462,-0.0881 1.09813,-0.12555 1.09813,-1.22687 0,-1.10132 -0.0335,-1.13876 -1.09813,-1.22687 -1.0092,-0.0835 -1.10999,-0.17389 -1.24455,-1.11581 -0.13402,-0.93818 -0.23778,-1.03252 -1.22588,-1.1147 -1.05727,-0.0879 -1.08136,-0.0668 -1.17134,1.02492 -0.0875,1.06122 -0.14105,1.1147 -1.1168,1.1147 -0.97611,0 -1.02492,-0.0488 -1.02492,-1.02492 0,-0.97575 0.0535,-1.02933 1.1147,-1.1168 1.09176,-0.09 1.11285,-0.11407 1.02492,-1.17134 -0.0822,-0.9881 -0.17652,-1.09186 -1.1147,-1.22588 -0.94192,-0.13456 -1.03228,-0.23535 -1.11581,-1.24455 -0.0881,-1.06461 -0.12555,-1.09813 -1.22686,-1.09813 -1.10132,0 -1.13876,0.0335 -1.22688,1.09813 -0.0863,1.04248 -0.14283,1.09814 -1.11581,1.09814 -0.97297,0 -1.02953,-0.0556 -1.11581,-1.09814 l -0.0909,-1.09813 1.18902,0 1.18902,0 0,-1.17134 0,-1.17134 -1.18902,0 -1.18902,0 0.0909,-1.09813 c 0.0863,-1.04247 0.14284,-1.09813 1.11581,-1.09813 0.97298,0 1.02953,0.0556 1.11581,1.09813 0.0884,1.06774 0.12281,1.09813 1.24455,1.09813 1.15072,0 1.15366,0.003 1.15366,1.17134 l 0,1.17134 2.32501,0 2.325,0 0.0909,1.09813 c 0.0863,1.04248 0.14283,1.09814 1.1158,1.09814 0.97575,0 1.02933,-0.0535 1.1168,-1.1147 0.09,-1.09177 0.11408,-1.11285 1.17134,-1.02493 0.98811,0.0822 1.09186,0.17652 1.22589,1.1147 0.13014,0.91104 0.26029,1.04119 1.17134,1.17134 0.91104,0.13015 1.04118,0.2603 1.17134,1.17134 0.13402,0.93817 0.23777,1.03252 1.22588,1.11469 1.05726,0.0879 1.08135,0.0669 1.17134,-1.02492 0.0872,-1.05745 0.14826,-1.11936 1.19001,-1.20558 1.0646,-0.0881 1.09812,-0.12556 1.09812,-1.22687 0,-1.10131 -0.0335,-1.13876 -1.09812,-1.22687 l -1.09814,-0.0909 -0.0855,-2.26947 -0.0855,-2.26947 -1.15902,0 c -1.15697,0 -1.15902,-0.002 -1.15902,-1.17134 0,-1.17134 0,-1.17134 -1.17134,-1.17134 -1.17134,0 -1.17134,0 -1.17134,-1.17134 0,-1.17134 0,-1.17134 1.17134,-1.17134 1.17134,0 1.17134,0 1.17134,1.17134 0,1.17134 0,1.17134 1.17133,1.17134 l 1.17134,0 0,1.18064 0,1.18063 3.44082,-0.0825 3.4408,-0.0825 0.0852,-2.25108 0.0852,-2.25108 -1.11012,-0.0916 -1.11012,-0.0916 -0.0883,-1.87258 c -0.12762,-2.70705 -0.12808,-2.70653 2.35352,-2.60607 l 2.12729,0.0861 0,1.02492 z m 0.26766,6.25595 c -0.0922,0.24017 -0.1242,0.74274 -0.0712,1.11683 0.0787,0.55577 0.30066,0.69701 1.2133,0.77219 l 1.11693,0.092 -0.092,-1.11693 c -0.0844,-1.02404 -0.17132,-1.12457 -1.04573,-1.20883 -0.63957,-0.0616 -1.00892,0.0519 -1.12129,0.34474 z m -6.94019,4.46745 c -0.115,0.11501 -0.2091,0.65632 -0.2091,1.2029 0,0.96932 0.027,0.99156 1.09814,0.90291 1.04247,-0.0863 1.09812,-0.14283 1.09812,-1.11581 0,-0.92715 -0.0848,-1.03323 -0.88902,-1.11201 -0.48897,-0.0479 -0.98313,0.007 -1.09814,0.12201 z m 6.93301,0.23661 c -0.0882,0.22988 -0.11702,0.72404 -0.064,1.09814 0.0799,0.56376 0.27179,0.68017 1.1213,0.68017 0.97297,0 1.02952,-0.0556 1.1158,-1.09813 0.0895,-1.082 0.0754,-1.09813 -0.9609,-1.09813 -0.64097,0 -1.11444,0.16325 -1.21218,0.41795 z m -2.32742,4.6456 c -0.0877,0.22856 -0.11975,1.25825 -0.0712,2.28817 l 0.0883,1.87258 1.02493,0 1.02492,0 0,-2.19626 0,-2.19626 -0.95373,-0.0919 c -0.62074,-0.0598 -1.00941,0.0532 -1.11321,0.32368 z m -13.9763,2.14583 c -0.11501,0.11501 -0.20911,0.64836 -0.20911,1.18522 0,0.94358 0.0391,0.97612 1.17134,0.97612 1.17135,0 1.17135,0 1.17135,1.17134 0,1.17134 0,1.17134 -1.17135,1.17134 l -1.17134,0 0,1.18902 0,1.18901 1.09814,-0.0909 c 1.03849,-0.086 1.10306,-0.15052 1.18901,-1.18902 0.0886,-1.07078 0.12006,-1.09813 1.26223,-1.09813 l 1.17133,0 -0.0909,-1.09813 c -0.0857,-1.03513 -0.15292,-1.10329 -1.17233,-1.18802 -1.01609,-0.0845 -1.08688,-0.15526 -1.17134,-1.17134 -0.0803,-0.9665 -0.18439,-1.09071 -0.97892,-1.16854 -0.48897,-0.0479 -0.98313,0.007 -1.09813,0.12201 z m 11.62332,4.90906 c -0.0909,0.23698 -0.12198,0.73695 -0.069,1.11105 0.091,0.64265 0.21753,0.68017 2.29262,0.68017 l 2.19627,0 0,-1.02492 0,-1.02492 -2.12729,-0.0861 c -1.6597,-0.0672 -2.16364,0.009 -2.29263,0.34474 z m 2.41888,6.81822 c -0.10738,0.10737 -0.19523,0.63448 -0.19523,1.17134 0,0.94358 0.0391,0.97612 1.17135,0.97612 1.17134,0 1.17134,0 1.17134,-1.17134 0,-1.1323 -0.0326,-1.17134 -0.97612,-1.17134 -0.53687,0 -1.06397,0.0879 -1.17134,0.19522 z m 16.05712,-27.13604 0,3.3676 -3.3676,0 -3.36761,0 -0.084,-3.05497 c -0.0462,-1.68023 -0.0157,-3.23294 0.0677,-3.45045 0.11771,-0.30674 0.89225,-0.3769 3.45165,-0.31263 l 3.29989,0.0829 0,3.3676 z m -4.4177,-0.77209 c -0.0922,0.24016 -0.1242,0.74274 -0.0712,1.11684 0.0799,0.56376 0.27178,0.68017 1.12129,0.68017 0.97611,0 1.02492,-0.0488 1.02492,-1.02492 0,-0.94273 -0.0765,-1.0323 -0.95373,-1.11684 -0.63957,-0.0616 -1.00892,0.0519 -1.12129,0.34475 z m 2.1659,10.0696 c -0.0835,1.0092 -0.17388,1.10999 -1.1158,1.24455 -0.91105,0.13015 -1.0412,0.2603 -1.17135,1.17134 -0.13546,0.94823 -0.22311,1.02493 -1.17134,1.02493 l -1.02492,0 -0.0883,-1.87259 c -0.0486,-1.02992 -0.0197,-2.05119 0.064,-2.26947 0.10965,-0.28573 0.77492,-0.39689 2.37543,-0.39689 l 2.22313,0 -0.0909,1.09813 z m -37.57376,7.10125 c 0,0.97297 -0.0556,1.02953 -1.09814,1.11581 -1.07108,0.0887 -1.09813,0.0664 -1.09813,-0.90291 0,-1.23973 0.19185,-1.43417 1.30723,-1.32491 0.80423,0.0788 0.88904,0.18486 0.88904,1.11201 z m -9.22431,4.66768 c 0,1.12175 0.0304,1.15618 1.09813,1.24455 1.04218,0.0863 1.10283,0.14781 1.19014,1.20782 l 0.092,1.11693 -1.11693,-0.092 c -1.05659,-0.087 -1.12179,-0.15043 -1.20682,-1.17345 -0.0845,-1.0161 -0.15525,-1.08688 -1.17134,-1.17135 -0.87619,-0.0728 -1.09974,-0.21898 -1.17782,-0.77006 -0.16147,-1.13974 0.15094,-1.51609 1.25852,-1.51609 1.0086,0 1.03411,0.0285 1.03411,1.15366 z m 9.31631,4.79504 0.092,1.11694 -1.11693,-0.092 c -1.06374,-0.0876 -1.12131,-0.14519 -1.20893,-1.20894 l -0.092,-1.11693 1.11693,0.092 c 1.06374,0.0876 1.12131,0.14519 1.20893,1.20893 z m 18.74033,4.66657 0.0909,1.09813 -1.17134,0 c -1.14217,0 -1.17361,0.0273 -1.26222,1.09813 -0.086,1.0385 -0.15053,1.10307 -1.18903,1.18902 -1.06461,0.0881 -1.09812,0.12556 -1.09812,1.22687 0,1.10131 0.0335,1.13876 1.09812,1.22687 1.04248,0.0863 1.09814,0.14284 1.09814,1.11581 0,0.97297 -0.0556,1.02953 -1.09814,1.11581 -1.07078,0.0886 -1.09812,0.12006 -1.09812,1.26223 l 0,1.17134 -1.09814,-0.0909 c -1.03513,-0.0857 -1.10328,-0.15293 -1.18802,-1.17233 -0.0845,-1.0161 -0.15525,-1.08689 -1.17134,-1.17134 -1.0236,-0.0851 -1.08145,-0.14473 -1.08145,-1.11482 0,-0.97297 0.0556,-1.02953 1.09813,-1.11581 1.06462,-0.0881 1.09814,-0.12556 1.09814,-1.22687 0,-1.10131 -0.0335,-1.13876 -1.09814,-1.22687 -1.04217,-0.0863 -1.10282,-0.1478 -1.19013,-1.20782 l -0.092,-1.11692 1.11693,0.092 c 1.06001,0.0873 1.12156,0.14797 1.20781,1.19014 0.0881,1.06462 0.12556,1.09813 1.22688,1.09813 1.10131,0 1.13876,-0.0335 1.22686,-1.09813 0.086,-1.0385 0.15052,-1.10307 1.18902,-1.18902 1.02677,-0.085 1.09813,-0.15317 1.09813,-1.04933 0,-1.20311 0.19779,-1.39823 1.30724,-1.28955 0.79731,0.0781 0.8984,0.20038 0.97992,1.18522 z m -6.97251,6.95483 c 0,1.17134 0,1.17134 1.17134,1.17134 1.17134,0 1.17134,0 1.17134,-1.17134 0,-1.17134 0,-1.17134 -1.17134,-1.17134 -1.17134,0 -1.17134,0 -1.17134,1.17134 z m -4.83178,-1.17134 0,2.19627 -1.02493,0 -1.02492,0 -0.0859,-2.28791 -0.0859,-2.2879 1.11078,0.0916 1.11079,0.0916 0,2.19626 z m 2.34267,8.19938 c 0,0.97298 -0.0556,1.02953 -1.09812,1.11581 -1.07109,0.0887 -1.09814,0.0664 -1.09814,-0.90291 0,-1.23973 0.19185,-1.43417 1.30724,-1.32491 0.80422,0.0788 0.88902,0.18486 0.88902,1.11201 z m 40.09323,-59.33909 c -0.0922,0.24016 -0.1242,0.74274 -0.0712,1.11684 0.0799,0.56376 0.27178,0.68017 1.12129,0.68017 0.97611,0 1.02492,-0.0488 1.02492,-1.02492 0,-0.94273 -0.0765,-1.03229 -0.95373,-1.11684 -0.63957,-0.0616 -1.00892,0.0519 -1.12129,0.34475 z m -46.84551,2.32161 c -0.0877,0.22857 -0.11976,1.25826 -0.0712,2.28818 l 0.0883,1.87258 2.19626,0 2.19627,0 0,-1.02492 c 0,-0.94823 -0.0767,-1.03588 -1.02493,-1.17134 -0.91104,-0.13015 -1.04119,-0.2603 -1.17134,-1.17134 -0.12948,-0.90642 -0.25668,-1.03555 -1.10014,-1.11684 -0.62073,-0.0598 -1.00941,0.0532 -1.1132,0.32368 z m -18.75175,16.42562 c -0.0909,0.23698 -0.12198,0.73695 -0.069,1.11104 0.091,0.64266 0.21752,0.68018 2.29262,0.68018 l 2.19627,0 0,-1.02492 0,-1.02492 -2.12729,-0.0861 c -1.6597,-0.0672 -2.16364,0.009 -2.29263,0.34474 z m 65.60534,4.6585 c -0.0877,0.22858 -0.11975,1.25826 -0.0712,2.28818 l 0.0883,1.87259 1.02493,0 1.02492,0 0,-2.19627 0,-2.19626 -0.95373,-0.0919 c -0.62073,-0.0598 -1.00941,0.0532 -1.11321,0.32368 z m -51.54704,23.44787 c -0.0922,0.24016 -0.1242,0.74274 -0.0712,1.11684 0.0799,0.56376 0.27177,0.68017 1.12128,0.68017 0.97612,0 1.02493,-0.0488 1.02493,-1.02492 0,-0.94273 -0.0765,-1.03229 -0.95373,-1.11684 -0.63957,-0.0616 -1.00892,0.0519 -1.12129,0.34475 z m -14.04328,4.65202 c -0.0792,0.20644 -0.10884,3.86534 -0.0658,8.13089 l 0.0782,7.75554 8.05296,0 8.05297,0 0,-8.05296 0,-8.05296 -7.98714,-0.0779 c -6.28203,-0.0613 -8.01788,0.002 -8.13116,0.29742 z m 13.77561,7.83347 0,5.71029 -5.71028,0 -5.71028,0 -0.0801,-5.40803 c -0.044,-2.97442 -0.0141,-5.57984 0.0665,-5.78984 0.11492,-0.29947 1.36368,-0.36465 5.79035,-0.30226 l 5.64382,0.0796 0,5.71028 z m -9.0942,-3.13782 c -0.0835,0.21751 -0.11395,1.77022 -0.0677,3.45045 l 0.084,3.05497 3.3676,0 3.3676,0 0,-3.3676 0,-3.3676 -3.29988,-0.0829 c -2.5594,-0.0643 -3.33394,0.006 -3.45164,0.31263 z m 32.78867,-4.66231 c -0.0922,0.24016 -0.1242,0.74274 -0.0712,1.11684 0.0799,0.56376 0.27177,0.68018 1.12128,0.68018 0.97612,0 1.02492,-0.0488 1.02492,-1.02493 0,-0.94273 -0.0765,-1.0323 -0.95372,-1.11684 -0.63957,-0.0616 -1.00892,0.0519 -1.12129,0.34475 z m 14.06888,-0.0333 c -0.0792,0.20644 -0.10884,3.86534 -0.0658,8.13089 l 0.0782,7.75555 8.05296,0 8.05297,0 0,-8.05297 0,-8.05296 -7.98714,-0.0779 c -6.28203,-0.0613 -8.01788,0.002 -8.13116,0.29742 z m 13.77562,7.83347 0,5.71029 -5.71029,0 -5.71028,0 -0.0801,-5.40803 c -0.044,-2.97441 -0.0141,-5.57984 0.0664,-5.78984 0.11492,-0.29947 1.36368,-0.36465 5.79035,-0.30225 l 5.64383,0.0796 0,5.71028 z m -9.09421,-3.13782 c -0.0835,0.21752 -0.11395,1.77022 -0.0677,3.45045 l 0.084,3.05497 3.3676,0 3.3676,0 0,-3.3676 0,-3.3676 -3.29988,-0.0829 c -2.5594,-0.0643 -3.33393,0.006 -3.45164,0.31263 z m -35.14905,9.39378 c -0.0922,0.24016 -0.1242,0.74274 -0.0712,1.11683 0.0799,0.56377 0.27178,0.68018 1.12129,0.68018 0.97612,0 1.02493,-0.0488 1.02493,-1.02492 0,-0.94273 -0.0765,-1.0323 -0.95373,-1.11684 -0.63957,-0.0616 -1.00892,0.0519 -1.12129,0.34475 z m 4.68536,0 c -0.0922,0.24016 -0.1242,0.74274 -0.0712,1.11683 0.0799,0.56377 0.27177,0.68018 1.12128,0.68018 0.97612,0 1.02493,-0.0488 1.02493,-1.02492 0,-0.94273 -0.0765,-1.0323 -0.95373,-1.11684 -0.63957,-0.0616 -1.00892,0.0519 -1.12129,0.34475 z"
   id="path4239"
   inkscape:connector-curvature="0" /><g
   id="g12"
   transform="translate(72,720)"><text
   transform="matrix(1,0,0,-1,-26.1,-29.64)"
   id="text14"><tspan
     style="fill:#000000;fill-opacity:1;fill-rule:nonzero;stroke:none;font-family:Optima LT Std;font-variant:normal;font-size:30.485;writing-mode:lr;-inkscape-font-specification:OptimaLTStd-Identity-H"
     x="0 20.333495 28.808325 44.050825"
     y="0"
     sodipodi:role="line"
     id="tspan16">Alex</tspan></text>

<text
   transform="matrix(1,0,0,-1,41.67,-29.64)"
   id="text18"><tspan
     style="fill:#000000;fill-opacity:1;fill-rule:nonzero;stroke:none;font-family:Optima LT Std;font-variant:normal;font-size:30.485;writing-mode:lr;-inkscape-font-specification:OptimaLTStd-Identity-H"
     x="0 18.626335 32.954285"
     y="0"
     sodipodi:role="line"
     id="tspan20">Ray</tspan></text>

<text
   transform="matrix(1,0,0,-1,425.73,17.01)"
   id="text22"><tspan
     style="fill:#4080bf;fill-opacity:1;fill-rule:nonzero;stroke:none;font-family:ACaslonPro-Italic-Identity;font-style:italic;font-variant:normal;font-size:10.909;writing-mode:lr;-inkscape-font-specification:ACaslonPro-Italic-Identity-H"
     x="0 5.4545 10.909 16.3635 24.32707 28.243401 33.905172 36.676058 41.639653 47.301424 54.948633 62.214027 65.639453"
     y="0"
     sodipodi:role="line"
     id="tspan24">InlandCt.</tspan><tspan
     style="fill:#4080bf;fill-opacity:1;fill-rule:nonzero;stroke:none;font-family:ACaslonPro-Italic-Identity;font-style:italic;font-variant:normal;font-size:10.909;writing-mode:lr;-inkscape-font-specification:ACaslonPro-Italic-Identity-H"
     x="-14.48 -6.701883 -1.738288 1.032598 4.839839 7.970722 12.68341 17.777913 23.014233 31.315982 41.090446 46.544946 51.999446 57.453946 62.908446"
     y="13.55"
     sodipodi:role="line"
     id="tspan26">Raleigh,NC</tspan></text>

<text
   transform="matrix(1,0,0,-1,411.19,-13.91)"
   id="text28"><tspan
     style="fill:#4080bf;fill-opacity:1;fill-rule:nonzero;stroke:none;font-family:MarVoSym;font-variant:normal;font-weight:normal;font-size:10.909;writing-mode:lr;-inkscape-font-specification:MarVoSym"
     x="0"
     y="0"
     id="tspan30">H</tspan></text>

<text
   transform="matrix(1,0,0,-1,423.8,-13.91)"
   id="text32"><tspan
     style="fill:#4080bf;fill-opacity:1;fill-rule:nonzero;stroke:none;font-family:LMRoman10-Regular-Identity;font-variant:normal;font-size:10.909;writing-mode:lr;-inkscape-font-specification:LMRoman10-Regular-Identity-H"
     x="0 4.243601 9.698101 15.152601 20.607101 28.483399 33.937899 39.392399 44.846899 48.479596 53.934096 59.388596 64.843096"
     y="0"
     sodipodi:role="line"
     id="tspan34">(919)210-0338</tspan></text>

<text
   transform="matrix(1,0,0,-1,419.23,-29.64)"
   id="text36"><tspan
     style="fill:#4080bf;fill-opacity:1;fill-rule:nonzero;stroke:none;font-family:MarVoSym;font-variant:normal;font-weight:normal;font-size:10.909;writing-mode:lr;-inkscape-font-specification:MarVoSym"
     x="0"
     y="0"
     id="tspan38">B</tspan></text>

<text
   transform="matrix(1,0,0,-1,431.06,-29.64)"
   id="text40"><tspan
     style="fill:#4080bf;fill-opacity:1;fill-rule:nonzero;stroke:none;font-family:ACaslonPro-Italic-Identity;font-style:italic;font-variant:normal;font-size:10.909;writing-mode:lr;-inkscape-font-specification:ACaslonPro-Italic-Identity-H"
     x="0 4.963595 7.919934 11.585358 16.548953 21.010734 28.647034 34.308805 37.603323 40.810569 46.090525 48.817775 52.625016 57.763155"
     y="0"
     sodipodi:role="line"
     id="tspan42">ajray@ncsu.edu</tspan></text>

<g
   id="g44"><path
     d="m -26.1,-74.87 85.04,0"
     style="fill:none;stroke:#4080bf;stroke-opacity:1;stroke-width:4.241;stroke-linecap:butt;stroke-linejoin:miter;stroke-miterlimit:10;stroke-dasharray:none"
     id="path46" /></g><text
   transform="matrix(1,0,0,-1,70.89,-77.97)"
   id="text48"><tspan
     style="fill:#3366a6;fill-opacity:1;fill-rule:nonzero;stroke:none;font-family:Optima LT Std;font-variant:normal;font-size:12.911;writing-mode:lr;-inkscape-font-specification:OptimaLTStd-Identity-H"
     x="0 10.754863 17.933379 21.522637 27.978137 34.433637 38.022895 41.379755 47.680323"
     y="0"
     sodipodi:role="line"
     id="tspan50">Objective</tspan></text>

<text
   transform="matrix(1,0,0,-1,-26.1,-107.4)"
   id="text52"><tspan
     style="fill:#000000;fill-opacity:1;fill-rule:nonzero;stroke:none;font-family:Optima LT Std;font-variant:normal;font-size:9.818;writing-mode:lr;-inkscape-font-specification:OptimaLTStd-Identity-H"
     x="0 8.904926 13.64702 19.105828 24.014828 26.744232 29.473636 34.382636 39.841444 44.750444 47.479848 52.938656 60.203976 64.023178 69.481986 77.66038 85.838774 90.747774 96.383306 99.11271 104.571518 107.300922 112.209922 115.479316 120.938124 124.757326 130.216134 132.945538 140.760666 145.669666 150.765208 158.040346 162.949346 168.408154 176.586548 182.045356 186.954356 192.246258 199.511578 204.970386 212.785514 215.514918 220.973726 228.248864 233.157864 238.616672 241.346076 244.07548 246.804884 252.263692 259.53883 264.44783 269.906638 274.815638 282.090776 287.549584 292.635308 298.094116 303.003116 313.007658 315.737062 320.646062 325.388156 330.846964 336.305772 341.76458 344.493984 349.952792 354.861792 362.127112 369.59861 375.057418 379.966418 383.235812 390.501132 395.586856 400.495856 405.404856 413.229802 418.68861 421.958004 424.687408 430.146216 437.421354 442.880162 447.789162 451.608364 455.427566 458.15697 463.615778 471.440724 474.170128 479.628936 482.35834 490.183286 494.002488 499.461296 502.1907 507.0997 509.829104 515.287912"
     y="0"
     sodipodi:role="line"
     id="tspan54">AchallengingsummerinternshipatacompanyonthecuttingedgeofnewtechnologywhereIcanbringpassionintosolving</tspan><tspan
     style="fill:#000000;fill-opacity:1;fill-rule:nonzero;stroke:none;font-family:Optima LT Std;font-variant:normal;font-size:9.818;writing-mode:lr;-inkscape-font-specification:OptimaLTStd-Identity-H"
     x="0 5.458808 8.728202 14.18701 19.645818 22.375222 27.284222 35.462616 42.001404 44.730808 50.189616 55.098616 60.557424 68.195828 70.925232 73.654636 79.113444 81.842848 90.021242 95.48005 98.749444 104.100254 108.891438 116.520024 121.978832 126.887832 132.34664 137.805448 140.534852 145.443852 149.263054 154.721862 157.451266 160.013764 164.804948 169.713948 173.53315"
     y="13.55"
     sodipodi:role="line"
     id="tspan56">problemsthatwillimprovepeoples’lives.</tspan></text>

<g
   id="g58"><path
     d="m -26.1,-143.38 85.04,0"
     style="fill:none;stroke:#4080bf;stroke-opacity:1;stroke-width:4.241;stroke-linecap:butt;stroke-linejoin:miter;stroke-miterlimit:10;stroke-dasharray:none"
     id="path60" /></g><text
   transform="matrix(1,0,0,-1,70.89,-148.14)"
   id="text62"><tspan
     style="fill:#3366a6;fill-opacity:1;fill-rule:nonzero;stroke:none;font-family:Optima LT Std;font-variant:normal;font-size:12.911;writing-mode:lr;-inkscape-font-specification:OptimaLTStd-Identity-H"
     x="0 6.4555 13.634016 20.812532 27.268032 33.723532 37.31279 40.902048 48.080564"
     y="0"
     sodipodi:role="line"
     id="tspan64">Education</tspan></text>

<text
   transform="matrix(1,0,0,-1,-26.1,-164.28)"
   id="text66"><tspan
     style="fill:#000000;fill-opacity:1;fill-rule:nonzero;stroke:none;font-family:Optima LT Std;font-variant:normal;font-size:8.966;writing-mode:lr;-inkscape-font-specification:OptimaLTStd-Identity-H"
     x="0 4.985096 9.970192 14.955288 19.940384 22.926062 27.911158 32.896254 37.88135 45.170708 47.663256 52.146256 56.629256 61.614352 66.097352 70.580352 73.0729 77.5559 82.540996"
     y="0"
     sodipodi:role="line"
     id="tspan68">2007-2012(expected)</tspan></text>

<text
   transform="matrix(1,0,0,-1,70.89,-164.28)"
   id="text70"><tspan
     style="fill:#000000;fill-opacity:1;fill-rule:nonzero;stroke:none;font-family:Optima LT Std;font-variant:normal;font-size:9.818;writing-mode:lr;-inkscape-font-specification:OptimaLTStd-Bold-Identity-H"
     x="0 6.548606 12.007414 20.185808 25.644616 31.103424 34.372818 39.281818 45.820606 50.729606 56.188414 61.097414 63.826818 69.285626 74.194626 79.103626 82.922828 85.652232 91.11104 98.749444 108.567444 113.132814 117.923998 122.832998 126.102392 128.831796 131.5612 139.189786 144.098786 149.557594 154.466594 157.205816 162.664624 167.573624 172.482624 176.301826 179.03123 184.490038 189.399038 194.857846 202.49625 209.044856 213.953856"
     y="0"
     sodipodi:role="line"
     id="tspan72">ComputerEngineering&amp;TextileEngineering,NCSU</tspan></text>

<text
   transform="matrix(1,0,0,-1,292.48,-164.28)"
   id="text74"><tspan
     style="fill:#000000;fill-opacity:1;fill-rule:nonzero;stroke:none;font-family:Optima LT Std;font-variant:normal;font-size:9.818;writing-mode:lr;-inkscape-font-specification:OptimaLTStd-Identity-H"
     x="0"
     y="0"
     id="tspan76">,</tspan></text>

<text
   transform="matrix(1,0,0,-1,297.94,-164.28)"
   id="text78"><tspan
     style="fill:#000000;fill-opacity:1;fill-rule:nonzero;stroke:none;font-family:Optima LT Std;font-style:italic;font-variant:normal;font-size:9.818;writing-mode:lr;-inkscape-font-specification:OptimaLTStd-Italic-Identity-H"
     x="0 5.998798 10.907798 13.273936 18.182936 20.549074 25.458074 30.916882 36.37569 44.014094"
     y="0"
     sodipodi:role="line"
     id="tspan80">Raleigh,NC</tspan></text>

<text
   transform="matrix(1,0,0,-1,348.51,-164.28)"
   id="text82"><tspan
     style="fill:#000000;fill-opacity:1;fill-rule:nonzero;stroke:none;font-family:Optima LT Std;font-variant:normal;font-size:9.818;writing-mode:lr;-inkscape-font-specification:OptimaLTStd-Identity-H"
     x="0 5.44899 13.087394 18.01603 24.564636 30.013626 35.472434 38.201838 43.660646"
     y="0"
     sodipodi:role="line"
     id="tspan84">,GPA:3.7.</tspan></text>

<g
   id="g86"><path
     d="m -26.1,-177.57 85.04,0"
     style="fill:none;stroke:#4080bf;stroke-opacity:1;stroke-width:4.241;stroke-linecap:butt;stroke-linejoin:miter;stroke-miterlimit:10;stroke-dasharray:none"
     id="path88" /></g><text
   transform="matrix(1,0,0,-1,70.89,-180.68)"
   id="text90"><tspan
     style="fill:#3366a6;fill-opacity:1;fill-rule:nonzero;stroke:none;font-family:Optima LT Std;font-variant:normal;font-size:12.911;writing-mode:lr;-inkscape-font-specification:OptimaLTStd-Identity-H"
     x="0 8.611637 15.790153 26.545016 33.723532 40.902048 44.491306 50.946806 58.822516 65.278016 71.733516 75.322774 78.912032 82.50129 91.112927 104.023927 110.479427 116.934927 124.113443 130.568943 137.747459 144.202959 150.658459 157.113959"
     y="0"
     sodipodi:role="line"
     id="tspan92">ComputerSkills&amp;Languages</tspan></text>

<text
   transform="matrix(1,0,0,-1,4.75,-210.09)"
   id="text94"><tspan
     style="fill:#000000;fill-opacity:1;fill-rule:nonzero;stroke:none;font-family:Optima LT Std;font-variant:normal;font-size:8.966;writing-mode:lr;-inkscape-font-specification:OptimaLTStd-Identity-H"
     x="0 4.985096 7.970774 12.95587 17.43887 20.316956 24.799956 32.268634 39.737312 42.22986 47.214956 51.697956"
     y="0"
     sodipodi:role="line"
     id="tspan96">Programming:</tspan></text>

<text
   transform="matrix(1,0,0,-1,70.89,-210.09)"
   id="text98"><tspan
     style="fill:#000000;fill-opacity:1;fill-rule:nonzero;stroke:none;font-family:Optima LT Std;font-variant:normal;font-size:9.818;writing-mode:lr;-inkscape-font-specification:OptimaLTStd-Identity-H"
     x="0 7.638404 13.097212 18.546202 25.094808 30.553616 36.012424 40.921424 43.650828 49.109636 54.568444 60.027252 65.48606 71.484858 76.393858 80.21306 85.671868 91.130676 96.589484 101.498484 105.317686 110.786312 116.24512 122.793726 126.612928 130.43213 135.34113 143.519524 148.978332 151.707736 155.723298 161.172288 167.190722 172.099722 175.369116 178.09852 180.827924 186.286732 191.195732 196.644722 201.553722 209.732116 214.641116 220.099924 226.64853 232.29388"
     y="0"
     sodipodi:role="line"
     id="tspan100">Go,C,Python,Bash,Tcsh,Assembly,Verilog,SQL,VBA</tspan></text>

<text
   transform="matrix(1,0,0,-1,2.06,-226.09)"
   id="text102"><tspan
     style="fill:#000000;fill-opacity:1;fill-rule:nonzero;stroke:none;font-family:Optima LT Std;font-variant:normal;font-size:8.966;writing-mode:lr;-inkscape-font-specification:OptimaLTStd-Identity-H"
     x="0 4.16919 8.65219 11.530276 16.013276 18.505824 20.998372 25.481372 27.97392 30.466468 34.949468 39.432468 41.925016 44.417564 49.40266 54.387756"
     y="0"
     sodipodi:role="line"
     id="tspan104">Parallelization:</tspan></text>

<text
   transform="matrix(1,0,0,-1,70.89,-226.09)"
   id="text106"><tspan
     style="fill:#000000;fill-opacity:1;fill-rule:nonzero;stroke:none;font-family:Optima LT Std;font-variant:normal;font-size:9.818;writing-mode:lr;-inkscape-font-specification:OptimaLTStd-Identity-H"
     x="0 8.178394 13.637202 18.546202 24.00501 32.733212 36.925498 42.374488 47.833296 52.860112 58.31892 61.588314 66.497314 71.406314 76.865122 80.684324 86.133314 94.861516 100.320324 103.049728 108.508536 116.68693 122.145738 127.054738 132.513546 139.062152 143.971152 149.42996 157.078182 162.53699 167.995798 172.904798 177.813798 181.642818 187.091808 193.090606 197.999606 203.350416 210.98882 216.447628 219.177032"
     y="0"
     sodipodi:role="line"
     id="tspan108">OpenMP,PThreads,MPI,OpenCL,Go;LSF,Beowulf</tspan></text>

<text
   transform="matrix(1,0,0,-1,23.22,-242.1)"
   id="text110"><tspan
     style="fill:#000000;fill-opacity:1;fill-rule:nonzero;stroke:none;font-family:Optima LT Std;font-variant:normal;font-size:8.966;writing-mode:lr;-inkscape-font-specification:OptimaLTStd-Identity-H"
     x="0 4.483 9.468096 11.960644 14.453192 21.276318 25.759318 28.744996 33.227996"
     y="0"
     sodipodi:role="line"
     id="tspan112">Software:</tspan></text>

<text
   transform="matrix(1,0,0,-1,70.89,-242.1)"
   id="text114"><tspan
     style="fill:#000000;fill-opacity:1;fill-rule:nonzero;stroke:none;font-family:Optima LT Std;font-variant:normal;font-size:9.818;writing-mode:lr;-inkscape-font-specification:OptimaLTStd-Identity-H"
     x="0 7.638404 10.367808 13.097212 18.546202 23.455202 28.91401 34.26482 39.056004 43.965004 47.234398 51.0536 53.783004 59.241812 64.70062 70.14961 78.877812 83.786812 86.948208 91.857208 97.316016 100.58541 103.314814 108.223814 110.953218 116.402208"
     y="0"
     sodipodi:role="line"
     id="tspan116">Git,Subversion,Mercurial;L</tspan><tspan
     style="fill:#000000;fill-opacity:1;fill-rule:nonzero;stroke:none;font-family:Optima LT Std;font-variant:normal;font-size:9.818;writing-mode:lr;-inkscape-font-specification:OptimaLTStd-Identity-H"
     x="117.79"
     y="-1.99"
     id="tspan118">a</tspan><tspan
     style="fill:#000000;fill-opacity:1;fill-rule:nonzero;stroke:none;font-family:Optima LT Std;font-variant:normal;font-size:9.818;writing-mode:lr;-inkscape-font-specification:OptimaLTStd-Identity-H"
     x="121.22"
     y="0"
     id="tspan120">T</tspan><tspan
     style="fill:#000000;fill-opacity:1;fill-rule:nonzero;stroke:none;font-family:Optima LT Std;font-variant:normal;font-size:9.818;writing-mode:lr;-inkscape-font-specification:OptimaLTStd-Identity-H"
     x="125.21"
     y="2.32"
     id="tspan122">E</tspan><tspan
     style="fill:#000000;fill-opacity:1;fill-rule:nonzero;stroke:none;font-family:Optima LT Std;font-variant:normal;font-size:9.818;writing-mode:lr;-inkscape-font-specification:OptimaLTStd-Identity-H"
     x="128.65 134.648798 140.097788 145.006788 147.736192 153.195 158.653808 163.562808 169.021616 177.20001 184.838414 190.837212 196.29602 201.754828 204.484232 209.393232 217.581444 223.040252 228.49906 236.137464 243.775868 249.548852 254.997842 261.546448 264.275852 272.454246 277.913054 284.294754 289.753562 292.482966 297.941774 300.671178 306.129986 311.588794 314.318198 318.1374 323.58639 332.314592 337.223592 342.132592"
     y="0"
     sodipodi:role="line"
     id="tspan124">X;Linux,OSX,Plan9;GDB,Vim,Autotools,Make</tspan></text>

<g
   id="g126"><path
     d="m -26.1,-255.39 85.04,0"
     style="fill:none;stroke:#4080bf;stroke-opacity:1;stroke-width:4.241;stroke-linecap:butt;stroke-linejoin:miter;stroke-miterlimit:10;stroke-dasharray:none"
     id="path128" /></g><text
   transform="matrix(1,0,0,-1,70.89,-258.17)"
   id="text130"><tspan
     style="fill:#3366a6;fill-opacity:1;fill-rule:nonzero;stroke:none;font-family:Optima LT Std;font-variant:normal;font-size:12.911;writing-mode:lr;-inkscape-font-specification:OptimaLTStd-Identity-H"
     x="0 6.4555 12.911 20.089516 26.545016 30.844379 34.433637 40.889137 48.067653 54.523153"
     y="0"
     sodipodi:role="line"
     id="tspan132">Experience</tspan></text>

<text
   transform="matrix(1,0,0,-1,17.09,-288.36)"
   id="text134"><tspan
     style="fill:#000000;fill-opacity:1;fill-rule:nonzero;stroke:none;font-family:Optima LT Std;font-variant:normal;font-size:8.966;writing-mode:lr;-inkscape-font-specification:OptimaLTStd-Identity-H"
     x="0 7.477644 11.960644 16.443644 23.912322 28.395322 31.883096 34.375644 38.858644"
     y="0"
     sodipodi:role="line"
     id="tspan136">1Semester</tspan></text>

<text
   transform="matrix(1,0,0,-1,70.89,-288.36)"
   id="text138"><tspan
     style="fill:#000000;fill-opacity:1;fill-rule:nonzero;stroke:none;font-family:Optima LT Std;font-variant:normal;font-size:9.818;writing-mode:lr;-inkscape-font-specification:OptimaLTStd-Bold-Identity-H"
     x="0 4.555552 9.464552 14.373552 19.164736 24.623544 27.352948 32.811756 40.440342 46.988948 50.80815 54.627352 57.356756 61.175958 64.445352 69.354352 74.81316 78.082554 81.351948 86.810756 90.629958 93.359362 98.81817 103.72717 106.456574 111.915382 114.644786 119.553786 126.102392 131.571018 137.393092 142.302092 145.031496 149.940496 154.849496 158.11889 161.938092 164.667496 169.576496 174.485496 179.944304 184.853304 190.312112 195.221112 197.950516 203.409324 208.318324 213.227324 217.046526 219.77593 225.234738"
     y="0"
     sodipodi:role="line"
     id="tspan140">TeachingAssistant-PrinciplesofElectricalEngineering</tspan></text>

<text
   transform="matrix(1,0,0,-1,301.04,-288.36)"
   id="text142"><tspan
     style="fill:#000000;fill-opacity:1;fill-rule:nonzero;stroke:none;font-family:Optima LT Std;font-variant:normal;font-size:9.818;writing-mode:lr;-inkscape-font-specification:OptimaLTStd-Identity-H"
     x="0"
     y="0"
     id="tspan144">,</tspan></text>

<text
   transform="matrix(1,0,0,-1,306.49,-288.36)"
   id="text146"><tspan
     style="fill:#000000;fill-opacity:1;fill-rule:nonzero;stroke:none;font-family:Optima LT Std;font-style:italic;font-variant:normal;font-size:9.818;writing-mode:lr;-inkscape-font-specification:OptimaLTStd-Italic-Identity-H"
     x="0 7.638404 10.132176 16.49424 25.222442 30.131442 33.950644 39.409452 44.318452 47.587846"
     y="0"
     sodipodi:role="line"
     id="tspan148">Dr.Masnari</tspan></text>

<text
   transform="matrix(1,0,0,-1,356.45,-288.36)"
   id="text150"><tspan
     style="fill:#000000;fill-opacity:1;fill-rule:nonzero;stroke:none;font-family:Optima LT Std;font-variant:normal;font-size:9.818;writing-mode:lr;-inkscape-font-specification:OptimaLTStd-Identity-H"
     x="0 5.44899 13.087394 19.636 24.545 32.183404"
     y="0"
     sodipodi:role="line"
     id="tspan152">,NCSU.</tspan></text>

<text
   transform="matrix(1,0,0,-1,69.96,-301.91)"
   id="text154"><tspan
     style="fill:#000000;fill-opacity:1;fill-rule:nonzero;stroke:none;font-family:MarVoSym;font-variant:normal;font-weight:normal;font-size:9.963;writing-mode:lr;-inkscape-font-specification:MarVoSym"
     x="0"
     y="0"
     id="tspan156">{</tspan></text>

<text
   transform="matrix(1,0,0,-1,83.91,-301.91)"
   id="text158"><tspan
     style="fill:#000000;fill-opacity:1;fill-rule:nonzero;stroke:none;font-family:Optima LT Std;font-variant:normal;font-size:8.966;writing-mode:lr;-inkscape-font-specification:OptimaLTStd-Identity-H"
     x="0 5.980322 9.468096 12.95587 15.448418 18.936192 21.42874 25.91174 33.380418 36.868192 39.36074 44.345836 49.330932 53.813932 58.799028 61.291576 67.271898 74.247446 76.739994 79.232542 86.710186 91.695282 96.680378 104.149056 108.632056 115.508978 120.494074 123.479752 130.446334 134.929334 139.91443 147.392074 151.875074 156.358074 160.841074 168.309752 173.294848 175.787396 182.762944 187.74804 190.733718 195.718814 200.70391 203.196458 207.679458 215.148136 221.128458 230.094458 235.079554 238.065232 242.951702 247.434702 249.92725 254.912346 259.395346 266.864024 270.351798 275.336894 280.32199 285.307086 287.799634 292.282634 299.751312 304.234312 309.219408 311.711956 316.194956 321.180052 323.6726 328.657696 332.14547 334.638018 337.623696 342.608792 347.091792 349.58434 352.076888 357.061984 362.04708 366.53008 371.515176 375.00295 379.988046 384.973142 389.958238 394.943334 397.929012"
     y="0"
     sodipodi:role="line"
     id="tspan160">Assistedstudentswithhomeworkandexampleproblems&amp;Providedsupplementalinstructionalsupport</tspan><tspan
     style="fill:#000000;fill-opacity:1;fill-rule:nonzero;stroke:none;font-family:Optima LT Std;font-variant:normal;font-size:8.966;writing-mode:lr;-inkscape-font-specification:OptimaLTStd-Identity-H"
     x="-64.33 -56.852356 -52.369356 -47.38426 -39.915582 -32.446904 -27.963904"
     y="17"
     sodipodi:role="line"
     id="tspan162">1Summer</tspan></text>

<text
   transform="matrix(1,0,0,-1,70.89,-318.91)"
   id="text164"><tspan
     style="fill:#000000;fill-opacity:1;fill-rule:nonzero;stroke:none;font-family:Optima LT Std;font-variant:normal;font-size:9.818;writing-mode:lr;-inkscape-font-specification:OptimaLTStd-Bold-Identity-H"
     x="0 6.548606 9.27801 13.097212 18.006212 26.184606 32.733212 38.19202 43.650828 46.380232 51.289232 58.927636 62.19703 67.655838 70.925232 75.834232 79.653434 85.112242 88.931444 94.390252 97.119656"
     y="0"
     sodipodi:role="line"
     id="tspan166">CiscoChoiceInternship</tspan></text>

<text
   transform="matrix(1,0,0,-1,173.48,-318.91)"
   id="text168"><tspan
     style="fill:#000000;fill-opacity:1;fill-rule:nonzero;stroke:none;font-family:Optima LT Std;font-variant:normal;font-size:9.818;writing-mode:lr;-inkscape-font-specification:OptimaLTStd-Identity-H"
     x="0"
     y="0"
     id="tspan170">,</tspan></text>

<text
   transform="matrix(1,0,0,-1,178.94,-318.91)"
   id="text172"><tspan
     style="fill:#000000;fill-opacity:1;fill-rule:nonzero;stroke:none;font-family:Optima LT Std;font-style:italic;font-variant:normal;font-size:9.818;writing-mode:lr;-inkscape-font-specification:OptimaLTStd-Italic-Identity-H"
     x="0 6.548606 8.914744 12.733946 17.642946"
     y="0"
     sodipodi:role="line"
     id="tspan174">Cisco</tspan></text>

<text
   transform="matrix(1,0,0,-1,202.04,-318.91)"
   id="text176"><tspan
     style="fill:#000000;fill-opacity:1;fill-rule:nonzero;stroke:none;font-family:Optima LT Std;font-variant:normal;font-size:9.818;writing-mode:lr;-inkscape-font-specification:OptimaLTStd-Identity-H"
     x="0 5.458808 14.18701 19.645818 22.915212 26.184606 28.91401 32.733212 37.642212 40.371616 43.10102 45.830424 50.739424 56.198232 63.836636 70.385242"
     y="0"
     sodipodi:role="line"
     id="tspan178">,Morrisville,NC.</tspan></text>

<text
   transform="matrix(1,0,0,-1,69.96,-332.46)"
   id="text180"><tspan
     style="fill:#000000;fill-opacity:1;fill-rule:nonzero;stroke:none;font-family:MarVoSym;font-variant:normal;font-weight:normal;font-size:9.963;writing-mode:lr;-inkscape-font-specification:MarVoSym"
     x="0"
     y="0"
     id="tspan182">{</tspan></text>

<text
   transform="matrix(1,0,0,-1,83.91,-332.46)"
   id="text184"><tspan
     style="fill:#000000;fill-opacity:1;fill-rule:nonzero;stroke:none;font-family:Optima LT Std;font-variant:normal;font-size:8.966;writing-mode:lr;-inkscape-font-specification:OptimaLTStd-Identity-H"
     x="0 6.975548 11.458548 15.833956 20.316956 22.809504 27.7946 32.779696 37.262696 44.731374 47.223922 52.110392 59.08594 62.071618 64.564166 69.047166 73.422574 77.905574 82.881704 85.374252 90.359348 95.344444 97.836992 103.817314 106.309862 113.787506 118.270506 120.763054 128.240698 130.733246 138.21089 140.703438 145.688534 152.664082 157.649178 162.132178 167.117274 172.10237 176.58537 181.06837 183.560918 188.546014 195.521562 200.506658 205.491754 209.974754 214.95985 217.452398 221.935398 224.921076 229.906172 232.89185 235.384398 238.872172 243.355172 246.34085 251.325946 256.311042 263.77972 268.26272 270.755268 278.232912 281.21859 286.203686 291.188782 293.68133 298.16433 301.150008 304.637782"
     y="0"
     sodipodi:role="line"
     id="tspan186">Developedlow-leveltoolstoaidinthedebuggingofenterprise-domainrouters.</tspan></text>

<text
   transform="matrix(1,0,0,-1,69.96,-347.4)"
   id="text188"><tspan
     style="fill:#000000;fill-opacity:1;fill-rule:nonzero;stroke:none;font-family:MarVoSym;font-variant:normal;font-weight:normal;font-size:9.963;writing-mode:lr;-inkscape-font-specification:MarVoSym"
     x="0"
     y="0"
     id="tspan190">{</tspan></text>

<text
   transform="matrix(1,0,0,-1,83.91,-347.4)"
   id="text192"><tspan
     style="fill:#000000;fill-opacity:1;fill-rule:nonzero;stroke:none;font-family:Optima LT Std;font-variant:normal;font-size:8.966;writing-mode:lr;-inkscape-font-specification:OptimaLTStd-Identity-H"
     x="0 2.492548 9.961226 14.946322 17.43887 21.92187 29.390548 33.873548 38.858644 41.351192 45.834192 53.30287 58.287966 62.770966 67.253966 69.746514 74.229514 81.205062 86.190158 89.175836 91.515962 95.89137 100.37437 103.360048 109.331404 111.823952 119.301596 126.770274 131.75537 136.740466 139.233014 141.725562 146.710658 152.188884 157.17398 161.65698 164.642658 167.135206 172.120302 175.10598 182.574658 187.057658 192.042754 196.525754 203.501302 207.984302 212.368676 216.851676 221.836772 224.32932 230.300676 235.285772 242.763416 247.093994 252.07909 254.571638"
     y="0"
     sodipodi:role="line"
     id="tspan194">Implementeddevicedriverstomonitorperformanceeventsonchip</tspan><tspan
     style="fill:#000000;fill-opacity:1;fill-rule:nonzero;stroke:none;font-family:Optima LT Std;font-variant:normal;font-size:8.966;writing-mode:lr;-inkscape-font-specification:OptimaLTStd-Identity-H"
     x="-70.31 -62.832356 -58.349356 -53.866356 -46.397678 -41.914678 -38.426904 -35.934356 -31.451356 -28.465678"
     y="15.34"
     sodipodi:role="line"
     id="tspan196">2Semesters</tspan></text>

<text
   transform="matrix(1,0,0,-1,70.89,-362.74)"
   id="text198"><tspan
     style="fill:#000000;fill-opacity:1;fill-rule:nonzero;stroke:none;font-family:Optima LT Std;font-variant:normal;font-size:9.818;writing-mode:lr;-inkscape-font-specification:OptimaLTStd-Bold-Identity-H"
     x="0 6.548606 12.007414 20.185808 25.644616 31.103424 34.372818 39.281818 42.551212 45.280616 50.739424 56.198232 61.107232 66.556222 71.465222 76.92403 80.0167 83.286094 90.698684 95.607684 99.30907 106.937656 114.57606 119.377062 124.109338 129.018338 131.747742 137.20655 142.665358 147.574358"
     y="0"
     sodipodi:role="line"
     id="tspan200">ComputationalSoftwareDeveloper</tspan></text>

<text
   transform="matrix(1,0,0,-1,222.28,-362.74)"
   id="text202"><tspan
     style="fill:#000000;fill-opacity:1;fill-rule:nonzero;stroke:none;font-family:Optima LT Std;font-variant:normal;font-size:9.818;writing-mode:lr;-inkscape-font-specification:OptimaLTStd-Identity-H"
     x="0"
     y="0"
     id="tspan204">,</tspan></text>

<text
   transform="matrix(1,0,0,-1,227.74,-362.74)"
   id="text206"><tspan
     style="fill:#000000;fill-opacity:1;fill-rule:nonzero;stroke:none;font-family:Optima LT Std;font-style:italic;font-variant:normal;font-size:9.818;writing-mode:lr;-inkscape-font-specification:OptimaLTStd-Italic-Identity-H"
     x="0 8.178394 13.813926 16.720054 22.178862 27.087862 29.454 34.363 39.272 42.178128 45.496612 50.95542 56.414228 58.780366 63.689366 70.237972 79.515982 83.875174 86.241312 91.150312 96.60912 99.613428 107.16347 111.87611 116.63784 124.266426 129.175426 134.634234 139.543234 141.909372 147.36818 152.27718 157.18618 160.455574 162.821712 168.28052 175.918924 183.557328 186.875812 192.33462 197.793428"
     y="0"
     sodipodi:role="line"
     id="tspan208">Optoelectronics&amp;LightwaveEngineeringGroup</tspan></text>

<text
   transform="matrix(1,0,0,-1,431.17,-362.74)"
   id="text210"><tspan
     style="fill:#000000;fill-opacity:1;fill-rule:nonzero;stroke:none;font-family:Optima LT Std;font-variant:normal;font-size:9.818;writing-mode:lr;-inkscape-font-specification:OptimaLTStd-Identity-H"
     x="0 5.458808 13.097212 19.645818 24.554818 32.193222"
     y="0"
     sodipodi:role="line"
     id="tspan212">,NCSU.</tspan></text>

<text
   transform="matrix(1,0,0,-1,69.96,-376.29)"
   id="text214"><tspan
     style="fill:#000000;fill-opacity:1;fill-rule:nonzero;stroke:none;font-family:MarVoSym;font-variant:normal;font-weight:normal;font-size:9.963;writing-mode:lr;-inkscape-font-specification:MarVoSym"
     x="0"
     y="0"
     id="tspan216">{</tspan></text>

<text
   transform="matrix(1,0,0,-1,83.91,-376.29)"
   id="text218"><tspan
     style="fill:#000000;fill-opacity:1;fill-rule:nonzero;stroke:none;font-family:Optima LT Std;font-variant:normal;font-size:8.966;writing-mode:lr;-inkscape-font-specification:OptimaLTStd-Identity-H"
     x="0 6.975548 11.458548 13.951096 16.443644 21.42874 26.413836 30.896836 35.872966 40.355966 44.838966 47.331514 51.814514 56.79961 61.28261 68.258158 72.346654 77.33175 82.316846 87.301942 92.287038 96.770038 99.262586 101.755134 106.74023 114.208908 116.701456 121.686552 126.671648 131.656744 136.139744 143.617388 149.095614 153.578614 157.066388 161.549388 166.032388 168.91944 173.241052 180.70973 185.694826 188.680504 193.6656 196.158148 200.641148 205.124148"
     y="0"
     sodipodi:role="line"
     id="tspan220">NationalScienceFoundationfundedResearchProject</tspan></text>

<text
   transform="matrix(1,0,0,-1,69.96,-391.23)"
   id="text222"><tspan
     style="fill:#000000;fill-opacity:1;fill-rule:nonzero;stroke:none;font-family:MarVoSym;font-variant:normal;font-weight:normal;font-size:9.963;writing-mode:lr;-inkscape-font-specification:MarVoSym"
     x="0"
     y="0"
     id="tspan224">{</tspan></text>

<text
   transform="matrix(1,0,0,-1,83.91,-391.23)"
   id="text226"><tspan
     style="fill:#000000;fill-opacity:1;fill-rule:nonzero;stroke:none;font-family:Optima LT Std;font-variant:normal;font-size:8.966;writing-mode:lr;-inkscape-font-specification:OptimaLTStd-Identity-H"
     x="0 6.975548 11.458548 15.833956 20.316956 22.809504 27.7946 32.779696 37.262696 44.731374 52.200052 57.185148 62.170244 66.653244 69.145792 71.63834 74.130888 79.115984 86.091532 89.579306 94.564402 97.05695 99.549498 106.372624 110.855624 113.841302 120.807884 123.300432 130.778076 134.26585 136.758398 144.227076 149.212172 151.70472 156.18772 158.680268 165.655816 170.138816 175.123912 182.601556 186.98593 191.46893 194.454608 196.947156 199.439704 206.406286 210.889286 215.372286 220.357382 224.840382 227.82606 230.318608 237.787286 242.270286 247.255382 249.74793 254.23093 259.216026 264.201122 269.186218 274.171314 276.663862 281.648958"
     y="0"
     sodipodi:role="line"
     id="tspan228">Developedmodellingsoftwaretosimulateandverifyexperimentalﬁnding</tspan></text>

<text
   transform="matrix(1,0,0,-1,69.96,-406.18)"
   id="text230"><tspan
     style="fill:#000000;fill-opacity:1;fill-rule:nonzero;stroke:none;font-family:MarVoSym;font-variant:normal;font-weight:normal;font-size:9.963;writing-mode:lr;-inkscape-font-specification:MarVoSym"
     x="0"
     y="0"
     id="tspan232">{</tspan></text>

<text
   transform="matrix(1,0,0,-1,83.91,-406.18)"
   id="text234"><tspan
     style="fill:#000000;fill-opacity:1;fill-rule:nonzero;stroke:none;font-family:Optima LT Std;font-variant:normal;font-size:8.966;writing-mode:lr;-inkscape-font-specification:OptimaLTStd-Identity-H"
     x="0 7.468678 12.453774 14.946322 17.43887 24.907548 27.400096 31.883096 38.849678 41.835356 46.820452 51.805548 54.298096 56.790644 64.259322 71.23487 76.219966 79.70774 82.200288 87.185384 94.160932 101.62961 106.614706 109.107254 111.599802 114.09235 116.584898 121.569994 124.555672 129.038672 133.521672 138.506768 140.999316 145.984412 150.467412 155.452508 162.921186 167.906282 170.39883 172.891378 175.383926 180.369022 183.3547 188.339796 192.822796 197.305796 200.79357 204.281344 206.773892 211.758988 218.734536 223.217536 228.202632 235.680276 242.655824 247.64092 257.109016 261.592016 266.577112 274.04579 279.030886 284.015982 286.50853 289.001078 293.986174 300.961722 305.946818 313.424462 320.89314 325.878236 328.370784 330.863332 333.35588 338.340976 340.833524 347.809072 352.794168 355.286716 359.769716 362.262264 364.754812 369.739908 372.725586 380.194264"
     y="0"
     sodipodi:role="line"
     id="tspan236">Optimizeruntimeusingmultithreading,multiprocessingandGPUcomputingonmultipleplatforms</tspan><tspan
     style="fill:#000000;fill-opacity:1;fill-rule:nonzero;stroke:none;font-family:Optima LT Std;font-variant:normal;font-size:8.966;writing-mode:lr;-inkscape-font-specification:OptimaLTStd-Identity-H"
     x="-64.33 -56.852356 -52.369356 -47.38426 -39.915582 -32.446904 -27.963904"
     y="15.36"
     sodipodi:role="line"
     id="tspan238">1Summer</tspan></text>

<text
   transform="matrix(1,0,0,-1,70.89,-421.54)"
   id="text240"><tspan
     style="fill:#000000;fill-opacity:1;fill-rule:nonzero;stroke:none;font-family:Optima LT Std;font-variant:normal;font-size:9.818;writing-mode:lr;-inkscape-font-specification:OptimaLTStd-Bold-Identity-H"
     x="0 8.178394 13.637202 18.546202 26.724596 31.633596 37.092404 42.551212 46.085692 50.994692 58.623278 66.261682 71.062684 75.79496 80.70396 83.433364 88.892172 94.35098 99.25998"
     y="0"
     sodipodi:role="line"
     id="tspan242">OpenSourceDeveloper</tspan></text>

<text
   transform="matrix(1,0,0,-1,173.97,-421.54)"
   id="text244"><tspan
     style="fill:#000000;fill-opacity:1;fill-rule:nonzero;stroke:none;font-family:Optima LT Std;font-variant:normal;font-size:9.818;writing-mode:lr;-inkscape-font-specification:OptimaLTStd-Identity-H"
     x="0"
     y="0"
     id="tspan246">,</tspan></text>

<text
   transform="matrix(1,0,0,-1,179.43,-421.54)"
   id="text248"><tspan
     style="fill:#000000;fill-opacity:1;fill-rule:nonzero;stroke:none;font-family:Optima LT Std;font-style:italic;font-variant:normal;font-size:9.818;writing-mode:lr;-inkscape-font-specification:OptimaLTStd-Italic-Identity-H"
     x="0 7.638404 13.097212 18.55602 23.46502 25.831158 33.459744 38.368744 43.827552 52.005946 60.18434 65.09334 71.092138 76.550946 82.009754 88.322728 93.781536 99.417068"
     y="0"
     sodipodi:role="line"
     id="tspan250">GoogleSummerofCode</tspan></text>

<text
   transform="matrix(1,0,0,-1,283.76,-421.54)"
   id="text252"><tspan
     style="fill:#000000;fill-opacity:1;fill-rule:nonzero;stroke:none;font-family:Optima LT Std;font-variant:normal;font-size:9.818;writing-mode:lr;-inkscape-font-specification:OptimaLTStd-Identity-H"
     x="0 5.44899 11.997596 20.17599 23.995192 26.724596 31.633596 34.90299 40.361798 45.270798 53.449192 58.908 66.546404 71.455404 74.184808 79.643616 84.552616 87.82201 90.551414 95.460414 100.919222 106.37803 110.197232 115.65604 118.925434 123.834434 132.012828 137.471636 140.20104 145.11004"
     y="0"
     sodipodi:role="line"
     id="tspan254">,Amsterdam,Netherlands,remote.</tspan></text>

<text
   transform="matrix(1,0,0,-1,69.96,-435.09)"
   id="text256"><tspan
     style="fill:#000000;fill-opacity:1;fill-rule:nonzero;stroke:none;font-family:MarVoSym;font-variant:normal;font-weight:normal;font-size:9.963;writing-mode:lr;-inkscape-font-specification:MarVoSym"
     x="0"
     y="0"
     id="tspan258">{</tspan></text>

<text
   transform="matrix(1,0,0,-1,83.91,-435.09)"
   id="text260"><tspan
     style="fill:#000000;fill-opacity:1;fill-rule:nonzero;stroke:none;font-family:Optima LT Std;font-variant:normal;font-size:8.966;writing-mode:lr;-inkscape-font-specification:OptimaLTStd-Identity-H"
     x="0 2.492548 7.477644 9.970192 14.453192 18.936192 21.814278 26.297278 28.789826 35.756408 40.741504 45.224504 48.210182 53.096652 59.910812 64.393812 67.37949 74.346072 79.331168 82.316846 84.656972 89.03238 93.51538 96.501058 102.472414 104.964962 109.950058 115.428284 120.41338 125.398476 128.384154 133.36925 136.354928 141.340024 145.823024 150.306024 153.793798 157.281572 162.266668 167.744894 172.72999 177.21299 180.198668 182.691216 187.676312 190.66199 198.130668 202.613668 207.598764 212.081764 219.057312 222.04299 226.52599 231.00899 233.501538 236.989312 239.48186 243.96486 246.950538"
     y="0"
     sodipodi:role="line"
     id="tspan262">Integratehardwaredriversforon-processorperformanceregisters</tspan></text>

<text
   transform="matrix(1,0,0,-1,69.96,-450.04)"
   id="text264"><tspan
     style="fill:#000000;fill-opacity:1;fill-rule:nonzero;stroke:none;font-family:MarVoSym;font-variant:normal;font-weight:normal;font-size:9.963;writing-mode:lr;-inkscape-font-specification:MarVoSym"
     x="0"
     y="0"
     id="tspan266">{</tspan></text>

<text
   transform="matrix(1,0,0,-1,83.91,-450.04)"
   id="text268"><tspan
     style="fill:#000000;fill-opacity:1;fill-rule:nonzero;stroke:none;font-family:Optima LT Std;font-variant:normal;font-size:8.966;writing-mode:lr;-inkscape-font-specification:OptimaLTStd-Identity-H"
     x="0 6.975548 11.458548 15.833956 20.316956 22.809504 27.7946 35.263278 40.248374 45.23347 47.726018 52.711114 55.203662 59.686662 63.174436 65.666984 71.647306 76.130306 81.115402 88.593046 91.085594 96.07069 98.563238 103.046238 107.529238 110.41629 114.89929 117.391838 124.35842 126.850968 131.836064 136.319064 146.28029 148.772838 153.757934 156.250482 163.728126 166.220674 171.20577 178.181318 182.664318 187.147318 189.639866 193.12764 195.620188 198.112736 203.097832 210.07338 215.058476 220.043572 222.53612 227.521216 230.013764 234.496764 237.984538 242.969634 245.462182 248.349234 252.832234 260.300912 264.783912 271.651868 276.636964 279.622642"
     y="0"
     sodipodi:role="line"
     id="tspan270">Developunittestsandintegratethemintotheexistingunittestframework</tspan></text>

<text
   transform="matrix(1,0,0,-1,69.96,-464.98)"
   id="text272"><tspan
     style="fill:#000000;fill-opacity:1;fill-rule:nonzero;stroke:none;font-family:MarVoSym;font-variant:normal;font-weight:normal;font-size:9.963;writing-mode:lr;-inkscape-font-specification:MarVoSym"
     x="0"
     y="0"
     id="tspan274">{</tspan></text>

<text
   transform="matrix(1,0,0,-1,83.91,-464.98)"
   id="text276"><tspan
     style="fill:#000000;fill-opacity:1;fill-rule:nonzero;stroke:none;font-family:Optima LT Std;font-variant:normal;font-size:8.966;writing-mode:lr;-inkscape-font-specification:OptimaLTStd-Identity-H"
     x="0 4.483 9.468096 14.453192 19.438288 24.423384 27.409062 32.385192 34.87774 39.862836 46.838384 50.326158 55.311254 57.803802 60.29635 67.119476 71.602476 74.588154 81.554736 86.037736 91.022832 98.49151 105.960188 110.945284 115.93038 118.422928 120.915476 127.891024 132.374024 137.35912 144.836764 149.82186 152.314408 157.299504 161.782504 167.26073 172.245826 176.728826 181.1132 185.5962 188.088748 193.073844 198.05894 202.54194 205.527618 211.498974 213.991522 218.976618 221.962296 226.947392 231.932488 236.415488 241.400584 246.38568 251.370776 256.355872 258.84842 263.833516 270.809064 275.79416 278.779838 283.764934 286.257482 290.740482 295.223482"
     y="0"
     sodipodi:role="line"
     id="tspan278">Supportthesoftwarecommunityandotherdevelopersthroughouttheproject</tspan><tspan
     style="fill:#000000;fill-opacity:1;fill-rule:nonzero;stroke:none;font-family:Optima LT Std;font-variant:normal;font-size:8.966;writing-mode:lr;-inkscape-font-specification:OptimaLTStd-Identity-H"
     x="-52.37 -44.901322 -40.409356 -35.926356 -31.443356 -28.457678"
     y="15.36"
     sodipodi:role="line"
     id="tspan280">2Years</tspan></text>

<text
   transform="matrix(1,0,0,-1,70.89,-480.34)"
   id="text282"><tspan
     style="fill:#000000;fill-opacity:1;fill-rule:nonzero;stroke:none;font-family:Optima LT Std;font-variant:normal;font-size:9.818;writing-mode:lr;-inkscape-font-specification:OptimaLTStd-Bold-Identity-H"
     x="0 6.548606 12.007414 20.185808 25.644616 31.103424 34.372818 39.281818 42.551212 45.280616 50.739424 56.198232 61.107232 66.556222 71.465222 76.374222 84.562434 91.11104 94.930242 98.749444 101.478848 105.29805 108.567444 113.476444 118.935252"
     y="0"
     sodipodi:role="line"
     id="tspan284">ComputationalLabAssistant</tspan></text>

<text
   transform="matrix(1,0,0,-1,193.11,-480.34)"
   id="text286"><tspan
     style="fill:#000000;fill-opacity:1;fill-rule:nonzero;stroke:none;font-family:Optima LT Std;font-variant:normal;font-size:9.818;writing-mode:lr;-inkscape-font-specification:OptimaLTStd-Identity-H"
     x="0"
     y="0"
     id="tspan288">,</tspan></text>

<text
   transform="matrix(1,0,0,-1,198.56,-480.34)"
   id="text290"><tspan
     style="fill:#000000;fill-opacity:1;fill-rule:nonzero;stroke:none;font-family:Optima LT Std;font-style:italic;font-variant:normal;font-size:9.818;writing-mode:lr;-inkscape-font-specification:OptimaLTStd-Italic-Identity-H"
     x="0 6.312974 11.771782 19.950176 25.585708 31.044516 34.039006 38.948006 41.854134 44.220272 49.67908 55.137888 60.046888 65.14243 71.691036 77.149844 82.058844 90.237238 92.603376 96.422578 99.328706 102.89264 110.531044 116.44148 121.35048 125.169682 130.078682 134.987682 138.257076 143.166076 151.34447 158.982874 162.301358 167.760166 173.218974"
     y="0"
     sodipodi:role="line"
     id="tspan292">ComputationalChemistryResearchGroup</tspan></text>

<text
   transform="matrix(1,0,0,-1,377.42,-480.34)"
   id="text294"><tspan
     style="fill:#000000;fill-opacity:1;fill-rule:nonzero;stroke:none;font-family:Optima LT Std;font-variant:normal;font-size:9.818;writing-mode:lr;-inkscape-font-specification:OptimaLTStd-Identity-H"
     x="0 5.458808 13.097212 19.645818 24.554818 32.193222"
     y="0"
     sodipodi:role="line"
     id="tspan296">,NCSU.</tspan></text>

<text
   transform="matrix(1,0,0,-1,69.96,-493.89)"
   id="text298"><tspan
     style="fill:#000000;fill-opacity:1;fill-rule:nonzero;stroke:none;font-family:MarVoSym;font-variant:normal;font-weight:normal;font-size:9.963;writing-mode:lr;-inkscape-font-specification:MarVoSym"
     x="0"
     y="0"
     id="tspan300">{</tspan></text>

<text
   transform="matrix(1,0,0,-1,83.91,-493.89)"
   id="text302"><tspan
     style="fill:#000000;fill-opacity:1;fill-rule:nonzero;stroke:none;font-family:Optima LT Std;font-variant:normal;font-size:8.966;writing-mode:lr;-inkscape-font-specification:OptimaLTStd-Identity-H"
     x="0 7.970774 12.453774 14.946322 19.931418 22.423966 26.906966 29.399514 36.868192 41.351192 46.336288 53.813932 58.799028 63.784124 68.76922 73.25222 75.744768 82.720316 87.203316 89.695864 94.68096 99.666056 106.641604 111.124604 116.1097 123.578378 128.563474 133.54857 136.041118 140.524118 143.016666 145.509214 150.49431 155.479406 159.962406 164.947502 167.44005 171.92305 179.400694 186.869372 191.352372 195.68295 200.668046 203.160594 208.14569 212.62869 216.116464 221.092594 226.07769 230.56069 233.546368 238.432838 245.246998 249.729998 252.715676 259.682258 264.165258 269.150354 276.627998 280.115772 285.100868 287.593416 290.085964 296.90909 301.39209 304.377768"
     y="0"
     sodipodi:role="line"
     id="tspan304">MaintainandupdateLinuxcomputationallabmachines’hardwareandsoftware</tspan></text>

<text
   transform="matrix(1,0,0,-1,69.96,-508.84)"
   id="text306"><tspan
     style="fill:#000000;fill-opacity:1;fill-rule:nonzero;stroke:none;font-family:MarVoSym;font-variant:normal;font-weight:normal;font-size:9.963;writing-mode:lr;-inkscape-font-specification:MarVoSym"
     x="0"
     y="0"
     id="tspan308">{</tspan></text>

<text
   transform="matrix(1,0,0,-1,83.91,-508.84)"
   id="text310"><tspan
     style="fill:#000000;fill-opacity:1;fill-rule:nonzero;stroke:none;font-family:Optima LT Std;font-variant:normal;font-size:8.966;writing-mode:lr;-inkscape-font-specification:OptimaLTStd-Identity-H"
     x="0 5.478226 10.463322 12.95587 15.448418 20.433514 25.409644 27.902192 32.887288 36.375062 38.86761 43.35061 45.843158 48.335706 53.320802 55.81335 60.29635 63.784124 68.76922 73.25222 78.237316 85.71496 90.700056 95.183056 100.168152 105.153248 112.128796 117.113892 121.596892 131.064988 134.552762 139.537858 142.030406 144.522954 151.34608 155.82908 158.814758 163.297758 168.273888 172.756888 177.741984 182.72708 185.219628 188.205306 190.697854 195.68295 200.668046 203.160594 205.653142 210.638238 217.613786 222.598882 227.081882 231.41246 238.379042 240.87159 248.349234 250.841782 255.826878 262.802426 267.285426 272.270522 279.7392 287.207878 292.192974 297.17807 299.670618 302.163166 309.138714 315.96184 320.946936 325.429936 328.415614 335.382196 339.865196 344.850292 349.835388 352.327936 354.820484 359.303484 363.786484 368.77158 371.264128"
     y="0"
     sodipodi:role="line"
     id="tspan312">Build,install,testanddebugnewsoftware,contributingbacktothecommunitywhereapplicable</tspan></text>

<text
   transform="matrix(1,0,0,-1,69.96,-523.78)"
   id="text314"><tspan
     style="fill:#000000;fill-opacity:1;fill-rule:nonzero;stroke:none;font-family:MarVoSym;font-variant:normal;font-weight:normal;font-size:9.963;writing-mode:lr;-inkscape-font-specification:MarVoSym"
     x="0"
     y="0"
     id="tspan316">{</tspan></text>

<text
   transform="matrix(1,0,0,-1,83.91,-523.78)"
   id="text318"><tspan
     style="fill:#000000;fill-opacity:1;fill-rule:nonzero;stroke:none;font-family:Optima LT Std;font-variant:normal;font-size:8.966;writing-mode:lr;-inkscape-font-specification:OptimaLTStd-Identity-H"
     x="0 6.975548 11.458548 15.833956 20.316956 22.809504 27.7946 35.263278 40.248374 42.740922 45.23347 47.726018 50.218566 52.711114 59.686662 64.671758 67.657436 72.642532 77.125532 80.012584 84.495584 91.964262 97.935618 102.418618 107.403714 114.881358 118.369132 122.852132 125.83781 128.330358 133.315454 135.808002 141.788324 144.280872 151.758516 156.241516 158.734064 166.211708 168.704256 173.187256 180.6649 188.133578 192.616578 200.085256 205.070352 209.553352 212.53903 218.519352 223.002352 227.987448 235.465092 239.948092 244.933188 247.425736 252.410832 259.87951 264.36251 266.855058 271.338058 273.830606 281.299284 285.782284 290.76738 295.25038 299.73338 306.708928 310.196702 312.68925 320.157928 325.143024 327.635572 332.118572 334.61112 337.103668 342.088764 347.07386"
     y="0"
     sodipodi:role="line"
     id="tspan320">Developutilityprogramsandscriptstoaidlabmembersandautomate/managesimulations</tspan></text>

<g
   id="g322"><path
     d="m -26.1,-552.09 85.04,0"
     style="fill:none;stroke:#4080bf;stroke-opacity:1;stroke-width:4.241;stroke-linecap:butt;stroke-linejoin:miter;stroke-miterlimit:10;stroke-dasharray:none"
     id="path324" /></g><text
   transform="matrix(1,0,0,-1,70.89,-556.85)"
   id="text326"><tspan
     style="fill:#3366a6;fill-opacity:1;fill-rule:nonzero;stroke:none;font-family:Optima LT Std;font-variant:normal;font-size:12.911;writing-mode:lr;-inkscape-font-specification:OptimaLTStd-Identity-H"
     x="0 7.888621 14.344121 17.933379 24.388879 30.534515 36.990015 44.168531 51.334136 57.789636 64.245136 67.834394 71.991736 78.447236 84.902736 92.081252 96.380615 100.679978 104.269236 110.724736 117.903252 121.49251 127.94801 132.247373"
     y="0"
     sodipodi:role="line"
     id="tspan328">RelevantExtracurriculars</tspan></text>

<text
   transform="matrix(1,0,0,-1,70.89,-573)"
   id="text330"><tspan
     style="fill:#000000;fill-opacity:1;fill-rule:nonzero;stroke:none;font-family:MarVoSym;font-variant:normal;font-weight:normal;font-size:10.909;writing-mode:lr;-inkscape-font-specification:MarVoSym"
     x="0"
     y="0"
     id="tspan332">{</tspan></text>

<text
   transform="matrix(1,0,0,-1,82.95,-573)"
   id="text334"><tspan
     style="fill:#000000;fill-opacity:1;fill-rule:nonzero;stroke:none;font-family:Optima LT Std;font-variant:normal;font-size:9.818;writing-mode:lr;-inkscape-font-specification:OptimaLTStd-Identity-H"
     x="0 8.178394 10.907798 16.366606 21.275606 26.184606 28.727468 34.176458 41.814862 46.723862 51.465956 56.374956 61.283956 67.272936 77.090936 82.549744 85.819138 90.728138 94.54734 99.45634 104.915148 107.644552 112.553552 118.55235 121.281754 126.740562 132.73936 135.468764 140.927572 148.565976 156.20438 162.752986 167.661986 178.029794 182.938794 185.668198 191.127006 196.585814 204.224218 211.862622 215.681824 220.590824 226.589622 234.228026 237.49742 242.956228 248.415036"
     y="0"
     sodipodi:role="line"
     id="tspan336">Ofﬁcer,Hacker&amp;PresenterfortheNCSULinuxUserGroup</tspan></text>

<text
   transform="matrix(1,0,0,-1,70.89,-586.55)"
   id="text338"><tspan
     style="fill:#000000;fill-opacity:1;fill-rule:nonzero;stroke:none;font-family:MarVoSym;font-variant:normal;font-weight:normal;font-size:10.909;writing-mode:lr;-inkscape-font-specification:MarVoSym"
     x="0"
     y="0"
     id="tspan340">{</tspan></text>

<text
   transform="matrix(1,0,0,-1,82.95,-586.55)"
   id="text342"><tspan
     style="fill:#000000;fill-opacity:1;fill-rule:nonzero;stroke:none;font-family:Optima LT Std;font-variant:normal;font-size:9.818;writing-mode:lr;-inkscape-font-specification:OptimaLTStd-Identity-H"
     x="0 4.909 9.818 14.727 22.905394 27.814394 33.273202 36.002606 38.73201 46.203508 51.112508 54.381902 62.010488 69.648892 74.557892 79.358894 84.267894 86.997298 92.456106 97.914914 102.823914 108.812894 114.811692 122.450096 127.908904 131.178298 133.907702 142.095914 148.64452 153.55352 156.822914 162.281722 165.011126 167.74053 173.199338 180.837742 187.386348 192.295348 195.564742 198.294146 203.203146 208.661954 214.660752 220.11956 225.578368 231.037176 233.76658 236.495984 241.404984 247.95359 254.502196 259.961004 268.139398 273.598206 278.507206 281.23661 283.966014 286.695418 289.424822 294.88363 303.071842 307.558668 312.467668 317.376668"
     y="0"
     sodipodi:role="line"
     id="tspan344">LeadSoftwareDeveloper-NorthCarolinaAerialRoboticsCompetitionTeam</tspan></text>

<text
   transform="matrix(1,0,0,-1,70.89,-600.1)"
   id="text346"><tspan
     style="fill:#000000;fill-opacity:1;fill-rule:nonzero;stroke:none;font-family:MarVoSym;font-variant:normal;font-weight:normal;font-size:10.909;writing-mode:lr;-inkscape-font-specification:MarVoSym"
     x="0"
     y="0"
     id="tspan348">{</tspan></text>

<text
   transform="matrix(1,0,0,-1,82.95,-600.1)"
   id="text350"><tspan
     style="fill:#000000;fill-opacity:1;fill-rule:nonzero;stroke:none;font-family:Optima LT Std;font-variant:normal;font-size:9.818;writing-mode:lr;-inkscape-font-specification:OptimaLTStd-Identity-H"
     x="0 4.732276 8.00167 10.731074 15.640074 21.098882 26.007882 28.737286 36.365872 42.914478 46.183872 51.64268 57.101488 59.830892 65.2897 73.477912 81.116316 86.025316 90.76741 95.67641 100.58541 103.854804 110.393592 116.39239 119.121794 124.580602 129.489602 134.398602 139.85741 148.035804 150.765208 155.674208 158.943602 164.40241 169.31141 174.770218 180.229026 182.95843 186.227824 191.686632 194.416036 197.14544 202.05444 208.053238 213.512046 218.421046 223.222048 228.131048 230.860452 236.31926 241.778068 249.956462 254.865462 260.32427 265.77326 270.68226 273.951654 279.410462 284.86927"
     y="0"
     sodipodi:role="line"
     id="tspan352">TriangleArduinoHackers-localmicrocontrollerdevelopmentgroup</tspan></text>

<text
   transform="matrix(1,0,0,-1,70.89,-613.64)"
   id="text354"><tspan
     style="fill:#000000;fill-opacity:1;fill-rule:nonzero;stroke:none;font-family:MarVoSym;font-variant:normal;font-weight:normal;font-size:10.909;writing-mode:lr;-inkscape-font-specification:MarVoSym"
     x="0"
     y="0"
     id="tspan356">{</tspan></text>

<text
   transform="matrix(1,0,0,-1,82.95,-613.64)"
   id="text358"><tspan
     style="fill:#000000;fill-opacity:1;fill-rule:nonzero;stroke:none;font-family:Optima LT Std;font-variant:normal;font-size:9.818;writing-mode:lr;-inkscape-font-specification:OptimaLTStd-Identity-H"
     x="0 6.548606 12.007414 17.466222 20.195626 23.46502 26.194424 31.653232 37.11204 39.841444 45.300252 51.289232 54.018636 62.206848 67.665656 73.124464 78.033464 86.221676 90.040878 95.499686 100.958494 104.11989 109.02889 116.657476 122.116284 125.385678 130.844486 133.57389 138.48289 143.39189 146.121294 152.6699 158.668698 162.4879 167.3969 175.035304 180.494112 183.223516 185.95292 191.411728 194.141132 196.870536 199.59994 204.50894 207.238344 209.967748 215.426556 220.885364 226.344172 229.073576 233.982576 239.441384 247.619778 250.349182 255.258182 257.987586 261.148982 265.763442"
     y="0"
     sodipodi:role="line"
     id="tspan360">Contributortoopensourceprojects-seehttp://github.com/ajray</tspan></text>

<text
   transform="matrix(1,0,0,-1,70.89,-627.19)"
   id="text362"><tspan
     style="fill:#000000;fill-opacity:1;fill-rule:nonzero;stroke:none;font-family:MarVoSym;font-variant:normal;font-weight:normal;font-size:10.909;writing-mode:lr;-inkscape-font-specification:MarVoSym"
     x="0"
     y="0"
     id="tspan364">{</tspan></text>

<text
   transform="matrix(1,0,0,-1,82.95,-627.19)"
   id="text366"><tspan
     style="fill:#000000;fill-opacity:1;fill-rule:nonzero;stroke:none;font-family:Optima LT Std;font-variant:normal;font-size:9.818;writing-mode:lr;-inkscape-font-specification:OptimaLTStd-Identity-H"
     x="0 4.909 7.638404 12.547404 18.006212 20.735616 26.194424 31.103424 36.012424 41.471232 46.920222 51.829222 56.738222 62.19703 67.10603 70.375424 73.104828 78.013828 83.472636 88.381636 96.02004 103.658444 106.387848 109.117252 114.57606 120.947942 128.586346 131.85574 137.314548 142.773356 148.232164 153.690972 161.329376 164.490772 169.399772 174.308772 179.76758 182.496984 185.226388 187.955792 193.4146 196.144004 198.873408 202.024986 206.933986 215.11238 217.841784 221.660986 224.39039 227.119794 232.578602 235.308006 238.03741 241.306804 246.765612 252.214602 257.123602 259.853006 265.311814 270.770622 278.409026 284.18201 289.09101 292.360404 297.819212 302.728212"
     y="0"
     sodipodi:role="line"
     id="tspan368">SigniﬁcantExperiencewith:Grub2,Dracut/Initramfs/Initrd,LinuxKernel</tspan></text>

</g><flowRoot
   xml:space="preserve"
   id="flowRoot3345"
   style="fill:black;stroke:none;stroke-opacity:1;stroke-width:1px;stroke-linejoin:miter;stroke-linecap:butt;fill-opacity:1;font-family:Calluna;font-style:normal;font-weight:normal;font-size:12px;line-height:125%;letter-spacing:0px;word-spacing:0px;-inkscape-font-specification:Calluna;font-stretch:normal;font-variant:normal"><flowRegion
     id="flowRegion3347"><rect
       id="rect3349"
       width="197.97885"
       height="112.66199"
       x="218.76115"
       y="27.450893"
       style="font-size:12px" /></flowRegion><flowPara
     id="flowPara3351" /></flowRoot><g
   id="g4163"
   transform="translate(177.19654,-36.314352)"><rect
   ry="0"
   transform="scale(1,-1)"
   y="-785.58942"
   x="8.9349127"
   height="63.047009"
   width="120.64075"
   id="rect3373"
   style="opacity:0.41015625;fill:#4080bf;fill-opacity:0.3103448;stroke:#000000;stroke-width:1.0779922;stroke-linecap:round;stroke-linejoin:round;stroke-miterlimit:4;stroke-opacity:1;stroke-dasharray:none" /><text
   transform="scale(1,-1)"
   sodipodi:linespacing="125%"
   id="text3353"
   y="-776.60956"
   x="12.963117"
   style="font-size:32.65625px;font-style:normal;font-variant:normal;font-weight:normal;font-stretch:normal;line-height:125%;letter-spacing:0px;word-spacing:0px;opacity:0.41015625;fill:#000000;fill-opacity:1;stroke:none;font-family:Calluna;-inkscape-font-specification:Calluna"
   xml:space="preserve"><tspan
     style="font-size:6.53125px;font-style:normal;font-variant:normal;font-weight:normal;font-stretch:normal;fill:#000000;fill-opacity:1;font-family:DejaVu Sans Mono;-inkscape-font-specification:DejaVu Sans Mono"
     y="-776.60956"
     x="12.963117"
     id="tspan3355"
     sodipodi:role="line">package main</tspan><tspan
     style="font-size:6.53125px;font-style:normal;font-variant:normal;font-weight:normal;font-stretch:normal;fill:#000000;fill-opacity:1;font-family:DejaVu Sans Mono;-inkscape-font-specification:DejaVu Sans Mono"
     id="tspan3357"
     y="-768.4455"
     x="12.963117"
     sodipodi:role="line" /><tspan
     style="font-size:6.53125px;font-style:normal;font-variant:normal;font-weight:normal;font-stretch:normal;fill:#000000;fill-opacity:1;font-family:DejaVu Sans Mono;-inkscape-font-specification:DejaVu Sans Mono"
     id="tspan3359"
     y="-760.28143"
     x="12.963117"
     sodipodi:role="line">import &quot;fmt&quot;</tspan><tspan
     style="font-size:6.53125px;font-style:normal;font-variant:normal;font-weight:normal;font-stretch:normal;fill:#000000;fill-opacity:1;font-family:DejaVu Sans Mono;-inkscape-font-specification:DejaVu Sans Mono"
     id="tspan3361"
     y="-752.11737"
     x="12.963117"
     sodipodi:role="line" /><tspan
     style="font-size:6.53125px;font-style:normal;font-variant:normal;font-weight:normal;font-stretch:normal;fill:#000000;fill-opacity:1;font-family:DejaVu Sans Mono;-inkscape-font-specification:DejaVu Sans Mono"
     id="tspan3363"
     y="-743.95331"
     x="12.963117"
     sodipodi:role="line">func main() {</tspan><tspan
     style="font-size:6.53125px;font-style:normal;font-variant:normal;font-weight:normal;font-stretch:normal;fill:#000000;fill-opacity:1;font-family:DejaVu Sans Mono;-inkscape-font-specification:DejaVu Sans Mono"
     id="tspan3365"
     y="-735.78925"
     x="12.963117"
     sodipodi:role="line">        fmt.Println(&quot;Résumé&quot;)</tspan><tspan
     style="font-size:6.53125px;font-style:normal;font-variant:normal;font-weight:normal;font-stretch:normal;fill:#000000;fill-opacity:1;font-family:DejaVu Sans Mono;-inkscape-font-specification:DejaVu Sans Mono"
     id="tspan3369"
     y="-727.62518"
     x="12.963117"
     sodipodi:role="line">}</tspan></text>

</g><text
   xml:space="preserve"
   style="font-size:14px;font-style:normal;font-variant:normal;font-weight:normal;font-stretch:normal;line-height:125%;letter-spacing:0px;word-spacing:0px;fill:#000000;fill-opacity:1;stroke:none;font-family:Calluna;-inkscape-font-specification:Calluna"
   x="319.3913"
   y="-15.754436"
   id="text4241"
   sodipodi:linespacing="125%"
   transform="matrix(0.8,0,0,-0.8,0,792)"><tspan
     sodipodi:role="line"
     id="tspan4243"
     x="319.3913"
     y="-15.754436">center the three blue things in line </tspan></text>

<text
   xml:space="preserve"
   style="font-size:55px;font-style:normal;font-variant:normal;font-weight:normal;font-stretch:normal;line-height:125%;letter-spacing:0px;word-spacing:0px;fill:#000000;fill-opacity:1;stroke:none;font-family:Calluna;-inkscape-font-specification:Calluna"
   x="458.30463"
   y="934.21588"
   id="text3178"
   sodipodi:linespacing="125%"
   transform="matrix(0.8,0,0,-0.8,0,792)"><tspan
     sodipodi:role="line"
     id="tspan3180"
     x="458.30463"
     y="934.21588">R'esum'e compiled in x.xxx seconds</tspan><tspan
     sodipodi:role="line"
     x="458.30463"
     y="1002.9659"
     id="tspan3182">Source code available at xx.x.x.x.x.x</tspan></text>
</g></svg>