<?xml version="1.0" encoding="UTF-8" standalone="no"?>
<!-- Created with Inkscape (http://www.inkscape.org/) -->

<svg
   xmlns:dc="http://purl.org/dc/elements/1.1/"
   xmlns:cc="http://creativecommons.org/ns#"
   xmlns:rdf="http://www.w3.org/1999/02/22-rdf-syntax-ns#"
   xmlns:svg="http://www.w3.org/2000/svg"
   xmlns="http://www.w3.org/2000/svg"
   xmlns:sodipodi="http://sodipodi.sourceforge.net/DTD/sodipodi-0.dtd"
   xmlns:inkscape="http://www.inkscape.org/namespaces/inkscape"
   width="85"
   height="85"
   id="svg3237"
   version="1.1"
   inkscape:version="0.48.1 r9760"
   sodipodi:docname="New document 3">
  <defs
     id="defs3239" />
  <sodipodi:namedview
     id="base"
     pagecolor="#ffffff"
     bordercolor="#666666"
     borderopacity="1.0"
     inkscape:pageopacity="0.0"
     inkscape:pageshadow="2"
     inkscape:zoom="8.4235294"
     inkscape:cx="42.5"
     inkscape:cy="42.5"
     inkscape:document-units="px"
     inkscape:current-layer="layer1"
     showgrid="false"
     inkscape:window-width="1600"
     inkscape:window-height="876"
     inkscape:window-x="0"
     inkscape:window-y="24"
     inkscape:window-maximized="1" />
  <metadata
     id="metadata3242">
    <rdf:RDF>
      <cc:Work
         rdf:about="">
        <dc:format>image/svg+xml</dc:format>
        <dc:type
           rdf:resource="http://purl.org/dc/dcmitype/StillImage" />
        <dc:title></dc:title>
      </cc:Work>
    </rdf:RDF>
  </metadata>
  <g
     inkscape:label="Layer 1"
     inkscape:groupmode="layer"
     id="layer1"
     transform="translate(0,-967.36218)">
    <path
       style="fill:#4080bf;fill-opacity:0.94117647"
       d="m 0.13783747,1051.9512 c -0.09934012,-0.259 -0.13651741,-4.8493 -0.0824824,-10.2008 l 0.09803565,-9.7297 10.10078328,0 10.100794,0 0,10.1029 0,10.1029 -10.018221,0.097 c -7.8795184,0.077 -10.05678292,0 -10.19886939,-0.3731 z m 17.27866953,-9.8276 0,-7.1638 -7.162373,0 -7.1623729,0 -0.100464,6.7846 c -0.055189,3.7316 -0.01766,7.0003 0.083385,7.2637 0.1441436,0.3757 1.7104563,0.4575 7.2628079,0.3792 l 7.079006,-0.1004 0,-7.1639 z m -11.4068054,3.9366 c -0.1047286,-0.2729 -0.1429294,-2.2209 -0.084891,-4.3288 l 0.1053608,-3.8327 4.2239626,0 4.223962,0 0,4.2249 0,4.2249 -4.139021,0.1039 c -3.210242,0.08 -4.1817483,-0.01 -4.3293737,-0.3922 z m 32.4187764,6.1196 c -0.142689,-0.1427 -0.259428,-0.8036 -0.259428,-1.4686 l 0,-1.2091 -2.846597,-0.1073 -2.846586,-0.1073 -0.183649,-4.2248 -0.183658,-4.2249 -2.754752,-0.1836 -2.754762,-0.1837 0,-2.7554 0,-2.7553 2.754762,0 2.754752,0 0.183658,1.2858 c 0.163239,1.143 0.326488,1.3063 1.469201,1.4695 l 1.285561,0.1837 0.183659,2.7554 0.183639,2.7553 1.361552,0.113 1.361551,0.1131 0.107619,-2.8684 0.107618,-2.8685 1.356454,-0.1128 c 1.274474,-0.1059 1.363268,-0.1948 1.469201,-1.4695 0.103233,-1.2424 0.221046,-1.3722 1.398307,-1.5404 l 1.285562,-0.1837 0,-2.7554 0,-2.7553 -1.353976,-0.1126 c -1.32613,-0.1103 -1.356344,-0.084 -1.4692,1.2858 -0.109004,1.3224 -0.189048,1.4046 -1.471689,1.5113 -1.274484,0.106 -1.363268,0.1947 -1.46921,1.4694 -0.106736,1.2842 -0.181522,1.3567 -1.398298,1.3567 -1.216796,0 -1.291602,-0.072 -1.398317,-1.3567 -0.105983,-1.2747 -0.194727,-1.3635 -1.469201,-1.4694 -1.283896,-0.1068 -1.356454,-0.1816 -1.356454,-1.3987 0,-1.217 0.07245,-1.2918 1.356454,-1.3986 1.274474,-0.106 1.363268,-0.1948 1.469201,-1.4695 0.106615,-1.2829 0.188836,-1.363 1.510913,-1.472 1.369398,-0.1129 1.395839,-0.1431 1.285551,-1.4695 l -0.112636,-1.3542 -2.754751,-0.1837 -2.754772,-0.1838 -0.114021,-1.3776 c -0.110498,-1.3356 -0.157489,-1.3777 -1.538868,-1.3777 -1.38136,0 -1.428341,0.042 -1.538849,1.3777 l -0.11402,1.3776 -2.867819,0.1077 -2.867809,0.1076 0.113017,1.3619 0.113007,1.3618 2.754762,0.1837 2.754771,0.1837 0,1.2858 c 0,1.1896 -0.09623,1.2996 -1.285571,1.4695 -1.142713,0.1633 -1.305952,0.3266 -1.4692,1.4696 -0.169912,1.1895 -0.279849,1.2858 -1.469211,1.2858 -1.189342,0 -1.299298,-0.096 -1.4692,-1.2858 l -0.183639,-1.2859 -5.693182,-0.1837 -5.693173,-0.1836 -0.112756,-1.3569 c -0.105992,-1.2747 -0.194726,-1.3635 -1.46921,-1.4694 -1.2763704,-0.1062 -1.3631375,-0.1935 -1.4697626,-1.479 l -0.1132678,-1.3662 -4.2943029,-0.1034 -4.2943028,-0.1034 0,-1.2858 0,-1.2858 2.7547617,-0.1837 2.7547618,-0.1837 0.1836588,-1.2858 c 0.1698917,-1.1896 0.2798482,-1.2858 1.4691903,-1.2858 l 1.2855615,0 0.1068659,2.8259 0.1068659,2.8259 1.3623052,0.1131 c 1.289374,0.107 1.368485,0.188 1.477558,1.5116 0.112887,1.3697 0.14308,1.3961 1.469211,1.2858 1.239363,-0.1031 1.369509,-0.2214 1.537614,-1.3984 0.168778,-1.1817 0.295191,-1.2951 1.561025,-1.3999 1.335352,-0.1105 1.377386,-0.1574 1.377386,-1.5392 0,-1.3816 -0.04204,-1.4285 -1.377386,-1.5391 l -1.377376,-0.1141 0,-4.2248 0,-4.2249 1.356454,-0.1128 c 1.274484,-0.106 1.363268,-0.1947 1.469211,-1.4695 l 0.112756,-1.3567 2.754771,-0.1837 2.754762,-0.1837 0.113007,-1.3618 0.113017,-1.3619 -2.867809,-0.1076 -2.867819,-0.1077 -0.11402,-1.3777 c -0.110629,-1.3367 -0.156436,-1.3776 -1.545572,-1.3776 l -1.431581,0 -0.107237,2.8472 -0.107248,2.8472 -2.831404,0.107 -2.8314045,0.107 -0.1069963,2.832 -0.1069863,2.832 -1.2855716,0 c -1.189342,0 -1.2992985,-0.096 -1.4691902,-1.2858 l -0.1836488,-1.2859 -2.7547718,-0.1836 -2.75476174,-0.1837 0,-1.2859 c 0,-1.1895 0.0962295,-1.2995 1.28555144,-1.4694 l 1.2855515,-0.1837 0.1068659,-2.8241 0.1068659,-2.8242 -1.3924174,-0.1149 c -1.32456503,-0.1092 -1.39241734,-0.1776 -1.39241734,-1.4007 0,-1.2246 0.0612096,-1.28584 1.28555144,-1.28584 1.2238803,0 1.2910905,0.0672 1.4007961,1.39844 0.1128865,1.3697 0.1430899,1.3962 1.4692103,1.2859 l 1.3539757,-0.1127 0,-4.22488 0,-4.22485 -1.2855715,-0.1837 c -1.1893421,-0.16994 -1.2855515,-0.27991 -1.2855515,-1.46951 l 0,-1.28582 2.7547718,0 2.7547618,0 0.1836387,1.28582 c 0.163249,1.14296 0.3264879,1.30624 1.4692004,1.46951 l 1.285572,0.1837 0.103474,4.31669 0.103485,4.31664 1.442097,0 1.442097,0 0.107248,-2.84712 0.107237,-2.84718 2.754762,0 2.754761,0 0.112766,1.35674 c 0.105983,1.27474 0.194727,1.36355 1.469201,1.46952 l 1.356464,0.11277 0.107237,2.84717 0.107247,2.8472 2.922958,0 2.922958,0 0,-1.4473 c 0,-1.4074 -0.03813,-1.4505 -1.377386,-1.5614 -1.307557,-0.1083 -1.377376,-0.1792 -1.377376,-1.3998 0,-1.21708 0.07245,-1.2919 1.356454,-1.39863 1.274484,-0.10602 1.363268,-0.19477 1.46921,-1.46952 0.103224,-1.24245 0.221047,-1.37222 1.398298,-1.54043 1.181455,-0.16881 1.294793,-0.29525 1.399552,-1.56135 l 0.11402,-1.37768 -2.93841,0 -2.938411,0 -0.11402,1.37768 c -0.108241,1.30783 -0.179144,1.37765 -1.399552,1.37765 -1.224332,0 -1.285552,-0.0612 -1.285552,-1.28582 0,-1.22065 0.06974,-1.2916 1.377376,-1.39984 1.335342,-0.11053 1.377386,-0.15753 1.377386,-1.53919 0,-1.38166 -0.04204,-1.42864 -1.377386,-1.53918 l -1.377376,-0.11404 0,-4.22487 0,-4.22484 1.285552,-0.1837 c 1.189362,-0.16994 1.285561,-0.2799 1.285561,-1.46951 0,-1.18961 -0.09623,-1.29956 -1.285561,-1.46951 -1.189342,-0.16994 -1.285552,-0.27991 -1.285552,-1.46951 l 0,-1.28583 2.825314,-0.10688 2.825313,-0.10689 0.113137,-1.3626 0.113138,-1.3626 2.754752,0 2.754771,0 0.183649,1.28582 c 0.168316,1.17853 0.297258,1.29525 1.545191,1.39889 l 1.361551,0.11303 0.107619,-2.86842 0.107618,-2.8684 1.356454,-0.11279 c 1.274484,-0.10601 1.363268,-0.19477 1.469211,-1.46951 l 0.112756,-1.35675 4.223962,0 4.223962,0 0,1.28582 c 0,1.18961 -0.09623,1.29957 -1.285552,1.46952 -1.142712,0.16328 -1.305951,0.32656 -1.4692,1.46951 -0.169912,1.18961 -0.279848,1.28584 -1.46921,1.28584 -1.189352,0 -1.299279,-0.0963 -1.4692,-1.28584 -0.168327,-1.17853 -0.297258,-1.29526 -1.545201,-1.39889 l -1.361542,-0.11303 -0.107618,2.86842 -0.107619,2.86842 -1.377385,0.11403 -1.377366,0.11405 0,2.93902 0,2.93903 1.377366,-0.11404 c 1.265844,-0.10476 1.392246,-0.21815 1.561024,-1.39984 0.163249,-1.14296 0.326498,-1.30624 1.469211,-1.46952 1.142722,-0.16329 1.305971,-0.32656 1.4692,-1.46951 0.169922,-1.18962 0.279848,-1.28583 1.46921,-1.28583 1.189362,0 1.299299,0.0962 1.4692,1.28583 0.169922,1.1896 0.279849,1.28582 1.469211,1.28582 l 1.285551,0 0.183649,-2.75534 0.183659,-2.75533 2.867819,-0.10765 2.867808,-0.10764 -0.113016,-1.36183 c -0.103605,-1.24821 -0.220325,-1.37717 -1.398599,-1.54553 -1.189362,-0.16995 -1.285562,-0.27991 -1.285562,-1.46952 l 0,-1.28582 2.754752,0 2.754772,0 0,2.75534 0,2.75535 -1.398167,0.11529 c -1.369399,0.11291 -1.395839,0.14311 -1.285552,1.46952 0.103103,1.23962 0.221409,1.36979 1.398158,1.53794 1.189352,0.16994 1.285561,0.27989 1.285561,1.46951 l 0,1.28582 -2.754772,0.18369 -2.754752,0.18369 -0.183648,1.28583 -0.183649,1.28582 -4.223972,0.18369 -4.223962,0.18369 -0.101227,5.80896 -0.101216,5.80895 1.386818,-0.11455 c 1.27651,-0.1055 1.401428,-0.21686 1.570467,-1.40041 l 0.183649,-1.28582 2.754761,-0.1837 2.754772,-0.18368 0.183649,-2.75535 0.183639,-2.75533 1.285571,0 1.285552,0 0.183639,2.75533 0.183648,2.75535 1.361552,0.11304 1.361552,0.11304 0.107618,-2.86843 0.107619,-2.86841 1.285551,0 1.285562,0 0,2.75534 0,2.75534 -1.356455,0.11279 c -1.274473,0.10589 -1.363267,0.19477 -1.46921,1.46951 -0.103223,1.24245 -0.221057,1.37222 -1.398307,1.54043 -1.176739,0.16813 -1.295085,0.2983 -1.398147,1.53795 -0.110258,1.3264 -0.08379,1.35662 1.285551,1.46952 1.331067,0.10977 1.398157,0.17694 1.398157,1.40107 0,1.22066 -0.06974,1.29161 -1.377386,1.39985 -1.335342,0.11053 -1.377386,0.15753 -1.377386,1.5392 0,1.3816 0.04204,1.4286 1.377386,1.5392 1.265844,0.1047 1.392247,0.2181 1.561025,1.3998 0.168346,1.1786 0.297258,1.2953 1.54521,1.399 l 1.361542,0.113 0.107618,-2.8685 0.107619,-2.86837 2.754762,0 2.754772,0 0.183648,1.28577 c 0.163239,1.1429 0.326478,1.3062 1.469211,1.4695 1.189342,0.17 1.285551,0.28 1.285551,1.4696 0,1.1896 -0.09623,1.2995 -1.285551,1.4695 -1.176759,0.1681 -1.295105,0.2983 -1.398167,1.5379 -0.110248,1.3264 -0.08379,1.3566 1.285551,1.4695 1.330485,0.1096 1.403736,0.183 1.513392,1.5137 0.112886,1.3697 0.143089,1.3962 1.46921,1.2859 l 1.353976,-0.1127 0.101096,-5.7634 0.101096,-5.76355 -1.386588,-0.11453 c -1.310817,-0.10828 -1.392778,-0.18924 -1.499915,-1.48077 l -0.113258,-1.36621 -4.294303,-0.10337 -4.294302,-0.10338 0,-1.28582 c 0,-1.1896 0.09623,-1.29957 1.285551,-1.46951 1.142712,-0.16328 1.305971,-0.32655 1.4692,-1.46951 l 0.183659,-1.28583 2.754772,0 2.754752,0 0.107247,2.84718 0.107237,2.84719 1.438304,0 1.438305,0 0.107247,-2.84719 0.107237,-2.84718 1.285552,0 c 1.189362,0 1.299298,0.0963 1.46921,1.28583 l 0.183649,1.28581 4.223982,0.1837 4.223962,0.1837 0,2.75533 0,2.75534 -1.285551,0 c -1.189363,0 -1.299319,-0.0962 -1.469211,-1.28582 l -0.183648,-1.28582 -4.315797,-0.10351 -4.315796,-0.1035 0,1.459 c 0,1.42077 0.03612,1.46199 1.377385,1.57302 l 1.377386,0.11403 0.183639,4.22487 0.183649,4.2248 2.754762,0 2.754772,0 0.112635,-1.3542 c 0.110248,-1.3264 0.08379,-1.3566 -1.285551,-1.4695 -1.331088,-0.1098 -1.398167,-0.177 -1.398167,-1.4011 0,-1.2246 0.06121,-1.2858 1.285561,-1.2858 1.216786,0 1.291572,0.072 1.398308,1.3567 0.105983,1.2748 0.194726,1.3636 1.4692,1.4695 l 1.356454,0.1128 0,2.7553 0,2.7554 -1.285551,0.1837 c -1.142723,0.1633 -1.305972,0.3266 -1.469201,1.4695 -0.169921,1.1896 -0.279848,1.2858 -1.46921,1.2858 -1.189372,0 -1.299298,-0.096 -1.46921,-1.2858 -0.169912,-1.1896 -0.279848,-1.2859 -1.46921,-1.2859 -1.189363,0 -1.299289,0.096 -1.469201,1.2859 l -0.183649,1.2858 -2.835056,0.1072 -2.835067,0.1071 -0.103354,4.3014 -0.103354,4.3015 -1.398157,0.1152 c -1.369388,0.1129 -1.395849,0.1432 -1.285551,1.4696 l 0.112635,1.3542 2.754762,0 2.754762,0 0.183639,-1.2858 c 0.168186,-1.1775 0.29793,-1.2953 1.540113,-1.3986 1.274473,-0.1059 1.363267,-0.1948 1.4692,-1.4695 0.106746,-1.2842 0.181522,-1.3567 1.398308,-1.3567 1.224342,0 1.285551,0.061 1.285551,1.2857 0,1.2227 -0.06823,1.2915 -1.388835,1.4006 l -1.388845,0.1147 0.103233,4.2939 0.103354,4.2938 1.285552,0.1836 c 1.185479,0.1694 1.294532,0.2926 1.400796,1.5822 0.112886,1.3696 0.14309,1.3961 1.4692,1.2858 l 1.353976,-0.1127 0.106866,-2.824 0.106866,-2.8242 -1.392418,-0.1149 c -1.324575,-0.1092 -1.392417,-0.1775 -1.392417,-1.4007 0,-1.2246 0.06121,-1.2859 1.285561,-1.2859 1.216786,0 1.291572,0.072 1.398308,1.3568 0.105983,1.2747 0.194727,1.3635 1.4692,1.4695 l 1.356454,0.1128 0,4.2249 0,4.2248 -2.754751,0 -2.754772,0 -0.115265,-1.3985 c -0.112886,-1.3696 -0.14309,-1.396 -1.46921,-1.2857 -1.239384,0.103 -1.369509,0.2214 -1.537625,1.3983 -0.163239,1.1431 -0.326478,1.3063 -1.46921,1.4696 l -1.285551,0.1836 0,2.7555 0,2.7553 1.353975,0.1126 c 1.326121,0.1103 1.356334,0.083 1.469211,-1.2858 l 0.115264,-1.3985 2.754762,0 2.754762,0 0.183659,1.2859 c 0.163228,1.143 0.326477,1.3062 1.4692,1.4694 1.189352,0.1701 1.285551,0.28 1.285551,1.4696 l 0,1.2859 -2.754751,0 -2.754772,0 -0.183649,-1.2859 c -0.168316,-1.1785 -0.297258,-1.2952 -1.54519,-1.3989 l -1.361552,-0.113 -0.107619,2.8684 -0.107618,2.8684 -1.356454,0.1127 c -1.274484,0.1061 -1.363268,0.1948 -1.469211,1.4696 l -0.112756,1.3567 -2.754761,0 -2.754772,0 -0.114011,-1.3776 -0.11402,-1.3777 -2.894069,0 -2.894058,0 -0.114011,1.3777 -0.11402,1.3776 -2.754772,0 -2.754752,0 0,-1.2858 0,-1.2858 2.867819,-0.1076 2.867809,-0.1077 -0.113017,-1.3619 c -0.103605,-1.2481 -0.220314,-1.3771 -1.398609,-1.5455 -1.142712,-0.1633 -1.305961,-0.3266 -1.46921,-1.4695 l -0.183639,-1.2858 -4.223962,0 -4.223972,0 -0.183659,4.2249 -0.183648,4.2248 -1.285552,0 c -1.189362,0 -1.299288,-0.096 -1.46921,-1.2859 -0.168096,-1.1769 -0.298241,-1.2953 -1.537615,-1.3983 -1.32611,-0.1103 -1.356344,-0.083 -1.4692,1.2857 l -0.115275,1.3985 -2.587158,0.1064 c -1.422941,0.058 -2.703907,-0.01 -2.846586,-0.1531 z m 5.617383,-4.156 c 0,-1.4073 0.03813,-1.4504 1.377386,-1.5613 l 1.377365,-0.114 0,-2.7554 0,-2.7554 -1.356444,-0.1127 c -1.274473,-0.1061 -1.363277,-0.1948 -1.4692,-1.4695 -0.106615,-1.2835 -0.188445,-1.363 -1.513713,-1.4722 l -1.400956,-0.1154 0.115395,1.4012 c 0.109495,1.3298 0.185595,1.4071 1.492801,1.5153 l 1.377366,0.114 0,2.9391 0,2.939 -1.377366,-0.114 c -1.265854,-0.1048 -1.392267,-0.2182 -1.561045,-1.3999 -0.168778,-1.1817 -0.295191,-1.295 -1.561035,-1.3998 l -1.377365,-0.114 0,2.9611 0,2.9613 2.9384,0 2.938411,0 0,-1.4474 z m 29.314467,0.069 -0.11402,-1.3777 -2.831405,-0.107 -2.831424,-0.107 -0.106986,-2.832 -0.106997,-2.832 -1.285551,0 -1.285562,0 0,2.7553 0,2.7553 1.377376,0.1141 c 1.339276,0.1109 1.377396,0.1541 1.377396,1.5613 l 0,1.4474 2.960577,0 2.960586,0 -0.11402,-1.3777 z m -20.682884,-11.848 c 0,-1.1896 -0.09623,-1.2996 -1.285552,-1.4695 -1.184556,-0.1692 -1.294592,-0.2932 -1.400505,-1.5772 l -0.114893,-1.3936 2.869705,0.1078 2.869705,0.1078 0.183649,1.2858 c 0.169912,1.1896 0.279858,1.2858 1.4692,1.2858 l 1.285562,0 0,-4.2248 0,-4.2249 -1.377386,-0.114 c -1.335332,-0.1106 -1.377376,-0.1576 -1.377376,-1.5392 0,-1.3817 0.04204,-1.4287 1.377376,-1.5392 l 1.377386,-0.114 0.183649,-4.2248 0.183649,-4.2249 1.285551,-0.1837 1.285562,-0.1837 0.107247,-2.8472 0.107237,-2.8472 1.438304,0 1.438315,0 0.107237,2.8472 0.107247,2.8472 2.846576,0.1073 2.846597,0.1073 0,-1.4629 c 0,-1.4251 -0.03532,-1.4657 -1.377386,-1.5768 -1.30257,-0.1078 -1.383567,-0.1888 -1.491387,-1.4917 -0.110498,-1.3356 -0.157469,-1.3776 -1.538838,-1.3776 -1.38138,0 -1.428341,-0.042 -1.538869,-1.3777 -0.107749,-1.3028 -0.188796,-1.3838 -1.491366,-1.4917 l -1.377396,-0.114 0,1.4695 c 0,1.4329 -0.03422,1.4723 -1.377376,1.5835 -1.265834,0.1047 -1.392257,0.2181 -1.561035,1.3998 -0.169901,1.1897 -0.279848,1.2859 -1.4692,1.2859 l -1.285551,0 -0.103354,-4.2952 -0.103354,-4.2952 -1.365907,-0.1133 c -1.289455,-0.107 -1.372298,-0.1904 -1.479917,-1.491 l -0.11401,-1.37768 1.491376,0 1.491366,0 0,-1.46951 c 0,-1.46577 -0.004,-1.46952 -1.447024,-1.46952 -1.406997,0 -1.450195,-0.0381 -1.561035,-1.37767 -0.10824,-1.30784 -0.179153,-1.37766 -1.399542,-1.37766 -1.216786,0 -1.291592,0.0727 -1.398307,1.35674 -0.105993,1.27473 -0.194747,1.36355 -1.46921,1.46952 -1.242193,0.10324 -1.371918,0.22108 -1.540113,1.39859 -0.163229,1.14295 -0.326478,1.30623 -1.469201,1.46951 l -1.285551,0.18369 0,5.69439 0,5.6943 1.285551,0.1838 1.285552,0.1836 0,2.7554 0,2.7553 -1.353966,0.1127 c -1.32611,0.1103 -1.356344,0.083 -1.4692,-1.2859 -0.109124,-1.3235 -0.188185,-1.4045 -1.477559,-1.5116 l -1.362304,-0.1131 -0.106866,-2.8259 -0.106866,-2.8259 -1.398157,-0.1154 c -1.369389,-0.1129 -1.395849,-0.1431 -1.285552,-1.4694 0.103103,-1.2397 0.221408,-1.3699 1.398147,-1.538 l 1.285562,-0.1837 0,-2.7553 0,-2.75533 -5.785007,-0.10111 -5.784997,-0.10112 0,1.45666 c 0,1.418 0.03653,1.4597 1.377396,1.5707 1.30257,0.1079 1.383557,0.1888 1.491366,1.4917 l 0.114021,1.3776 -1.513562,0 -1.513542,0 0.11401,1.3777 c 0.107749,1.3029 0.188786,1.3838 1.491376,1.4917 1.335342,0.1105 1.377376,0.1575 1.377376,1.5392 0,1.3817 -0.04204,1.4286 -1.377376,1.5391 -1.265834,0.1048 -1.392257,0.2182 -1.561035,1.3999 -0.168105,1.177 -0.298251,1.2954 -1.537614,1.3985 -1.32613,0.1103 -1.356344,0.083 -1.46921,-1.2859 -0.109746,-1.3313 -0.176916,-1.3984 -1.400796,-1.3984 -1.224322,0 -1.285552,0.061 -1.285552,1.2858 0,1.2242 0.06713,1.2914 1.398167,1.4011 1.369389,0.1129 1.395839,0.1431 1.285552,1.4695 -0.103103,1.2396 -0.221408,1.3698 -1.398167,1.5379 -1.181445,0.1688 -1.294784,0.2953 -1.399552,1.5614 -0.110499,1.3357 -0.157479,1.3777 -1.538839,1.3777 -1.38138,0 -1.42834,-0.042 -1.538869,-1.3777 -0.10825,-1.3078 -0.179153,-1.3777 -1.399562,-1.3777 -1.220388,0 -1.291331,0.069 -1.399551,1.3777 l -0.114011,1.3777 1.491376,0 1.491387,0 0,1.4695 0,1.4695 -1.491387,0 -1.491376,0 0.114011,1.3777 c 0.10825,1.3078 0.179163,1.3777 1.399551,1.3777 1.220409,0 1.291342,-0.07 1.399562,-1.3777 0.11088,-1.3396 0.154038,-1.3777 1.561025,-1.3777 1.443342,0 1.447034,0 1.447034,-1.4695 l 0,-1.4695 2.916245,0 2.916235,0 0.11402,-1.3777 c 0.108241,-1.3078 0.179143,-1.3777 1.399542,-1.3777 1.22387,0 1.29108,0.067 1.400796,1.3985 0.112886,1.3697 0.14309,1.3962 1.4692,1.2859 1.239384,-0.1032 1.369519,-0.2216 1.537625,-1.3985 0.163239,-1.143 0.326487,-1.3063 1.46921,-1.4696 1.142712,-0.1633 1.305941,-0.3265 1.4692,-1.4694 0.168106,-1.1771 0.298241,-1.2954 1.537615,-1.3985 1.32612,-0.1103 1.356334,-0.084 1.46921,1.2858 0.109374,1.3267 0.185957,1.4043 1.49262,1.5125 1.335322,0.1105 1.377366,0.1575 1.377366,1.5392 0,1.3816 -0.04204,1.4287 -1.377366,1.5392 l -1.377385,0.114 -0.107248,2.8472 -0.107237,2.8472 -1.453757,0 c -1.451179,0 -1.453748,0 -1.453748,1.4695 0,1.4694 0,1.4694 -1.46921,1.4694 -1.4692,0 -1.4692,0 -1.4692,1.4696 0,1.4695 0,1.4695 1.4692,1.4695 1.46921,0 1.46921,0 1.46921,-1.4695 0,-1.4696 0,-1.4696 1.469191,-1.4696 l 1.4692,0 0,-1.4811 0,-1.4811 4.315806,0.1035 4.315777,0.1034 0.106866,2.8242 0.106866,2.8241 -1.392418,0.1149 -1.392417,0.1149 -0.110759,2.3492 c -0.160068,3.3962 -0.16065,3.3956 2.952007,3.2695 l 2.668255,-0.108 0,-1.2859 z m 0.335729,-7.8484 c -0.115646,-0.3014 -0.155783,-0.9319 -0.08931,-1.4012 0.09874,-0.6972 0.377112,-0.8743 1.521831,-0.9687 l 1.400966,-0.1154 -0.115395,1.4012 c -0.105862,1.2848 -0.214885,1.4109 -1.311661,1.5166 -0.802206,0.077 -1.265482,-0.065 -1.406425,-0.4325 z m -8.705044,-5.6047 c -0.144244,-0.1443 -0.262268,-0.8234 -0.262268,-1.5091 0,-1.216 0.03382,-1.2439 1.377386,-1.1327 1.307567,0.1083 1.377365,0.1791 1.377365,1.3997 0,1.1633 -0.106364,1.2964 -1.115087,1.3952 -0.61332,0.06 -1.233142,-0.01 -1.377396,-0.1531 z m 8.696033,-0.2968 c -0.110628,-0.2885 -0.146772,-0.9084 -0.08028,-1.3777 0.100244,-0.7073 0.340908,-0.8533 1.406446,-0.8533 1.220388,0 1.291321,0.069 1.399542,1.3777 0.112254,1.3574 0.09462,1.3776 -1.205257,1.3776 -0.803963,0 -1.397836,-0.2048 -1.520426,-0.5243 z m -2.919265,-5.8282 c -0.110006,-0.2867 -0.150204,-1.5785 -0.08931,-2.8706 l 0.11075,-2.3494 1.285571,0 1.285552,0 0,2.7555 0,2.7553 -1.196266,0.1153 c -0.778586,0.075 -1.266095,-0.066 -1.396291,-0.4061 z m -17.530401,-2.6921 c -0.144253,-0.1443 -0.262278,-0.8134 -0.262278,-1.4869 0,-1.1838 0.04907,-1.2246 1.469201,-1.2246 1.46922,0 1.46922,0 1.46922,-1.4696 0,-1.4694 0,-1.4694 -1.46922,-1.4694 l -1.469201,0 0,-1.4917 0,-1.4917 1.377386,0.1141 c 1.30257,0.1079 1.383567,0.1888 1.491367,1.4916 0.11113,1.3434 0.150595,1.3777 1.58321,1.3777 l 1.46919,0 -0.11401,1.3777 c -0.107498,1.2986 -0.191807,1.3841 -1.470444,1.4904 -1.274484,0.106 -1.363268,0.1948 -1.469211,1.4696 -0.100715,1.2125 -0.231282,1.3682 -1.227854,1.4659 -0.61331,0.06 -1.233132,-0.01 -1.377376,-0.1531 z m 14.579066,-6.1587 c -0.11401,-0.2973 -0.152993,-0.9245 -0.0866,-1.3938 0.114141,-0.8063 0.272854,-0.8534 2.875626,-0.8534 l 2.754771,0 0,1.2859 0,1.2857 -2.668255,0.1081 c -2.081748,0.084 -2.713842,-0.011 -2.875626,-0.4326 z m 3.033988,-8.55383 c -0.134681,-0.1347 -0.244868,-0.796 -0.244868,-1.46951 0,-1.18378 0.04907,-1.2246 1.46921,-1.2246 1.46921,0 1.46921,0 1.46921,1.46951 0,1.42054 -0.04094,1.46952 -1.224341,1.46952 -0.673396,0 -1.33453,-0.11028 -1.469211,-0.24492 z m 20.140357,34.04373 0,-4.2249 -4.223962,0 -4.223972,0 -0.105361,3.8327 c -0.0579,2.1079 -0.01967,4.0559 0.08489,4.3288 0.147635,0.3848 1.119142,0.4728 4.329383,0.3922 l 4.139031,-0.104 0,-4.2248 z m -5.541092,0.9687 c -0.115646,-0.3013 -0.155783,-0.9319 -0.0893,-1.4012 0.100243,-0.7073 0.340887,-0.8533 1.406425,-0.8533 1.224332,0 1.285551,0.061 1.285551,1.2858 0,1.1828 -0.09593,1.2951 -1.196255,1.4012 -0.802207,0.077 -1.265483,-0.065 -1.406426,-0.4325 z m 2.716672,-12.6329 c -0.104729,-1.2661 -0.218097,-1.3926 -1.399542,-1.5614 -1.142722,-0.1633 -1.305971,-0.3266 -1.46921,-1.4695 -0.169912,-1.1897 -0.279848,-1.2859 -1.469211,-1.2859 l -1.285551,0 -0.110749,2.3493 c -0.06091,1.2921 -0.02468,2.5734 0.08028,2.8472 0.13753,0.3585 0.971977,0.4979 2.979481,0.4979 l 2.788467,0 -0.11402,-1.3776 z m -47.12856,-8.909 c 0,-1.2206 -0.06974,-1.2916 -1.377385,-1.3999 -1.34345,-0.1112 -1.377376,-0.083 -1.377376,1.1328 0,1.5553 0.240634,1.7993 1.639643,1.6622 1.008744,-0.098 1.115118,-0.232 1.115118,-1.3951 z M 8.7849335,1006.877 c 0,-1.4073 0.038131,-1.4504 1.3773765,-1.5613 1.307195,-0.1083 1.383276,-0.1855 1.492781,-1.5153 l 0.115395,-1.4012 -1.400957,0.1154 c -1.3252777,0.1091 -1.4070577,0.1887 -1.5137028,1.4721 -0.1059929,1.2748 -0.1947368,1.3636 -1.4692103,1.4696 -1.0990028,0.091 -1.3793928,0.2747 -1.4773281,0.966 -0.2025334,1.4299 0.1893182,1.9021 1.5785547,1.9021 1.2650814,0 1.2970709,-0.036 1.2970709,-1.4474 z m 11.6853895,-6.0156 0.115395,-1.40128 -1.400957,0.11541 c -1.334238,0.1099 -1.406455,0.18215 -1.516352,1.51667 l -0.115395,1.4013 1.400957,-0.1154 c 1.334248,-0.1099 1.406455,-0.1822 1.516352,-1.5167 z m 23.505899,-5.85451 0.114011,-1.37766 -1.469201,0 c -1.432625,0 -1.47206,-0.0342 -1.5832,-1.37768 -0.10787,-1.30285 -0.188807,-1.38385 -1.491396,-1.49169 -1.335332,-0.11053 -1.377366,-0.15752 -1.377366,-1.53918 0,-1.38166 0.04204,-1.42864 1.377366,-1.53918 1.307576,-0.10826 1.377395,-0.1792 1.377395,-1.39985 0,-1.22064 -0.06974,-1.2916 -1.377395,-1.39984 -1.343069,-0.11116 -1.377366,-0.15063 -1.377366,-1.58355 l 0,-1.46951 -1.377386,0.11404 c -1.298356,0.10752 -1.383838,0.19185 -1.490132,1.47075 -0.105983,1.27476 -0.194727,1.36358 -1.4692,1.46952 -1.283896,0.10676 -1.356455,0.18157 -1.356455,1.3986 0,1.22066 0.06974,1.29162 1.377376,1.39986 1.335342,0.11052 1.377386,0.15752 1.377386,1.53917 0,1.38166 -0.04204,1.42864 -1.377386,1.53918 -1.307185,0.10828 -1.383266,0.18543 -1.492771,1.51529 l -0.115395,1.40124 1.400957,-0.11542 c 1.329562,-0.10953 1.406766,-0.18564 1.514947,-1.4931 0.110508,-1.33563 0.157489,-1.37767 1.538868,-1.37767 1.38137,0 1.428341,0.0421 1.538849,1.37767 0.10787,1.30286 0.188797,1.38386 1.491376,1.4917 1.28787,0.10663 1.377376,0.19215 1.377376,1.31644 0,1.50937 0.24809,1.75416 1.639664,1.61782 1.000064,-0.098 1.126858,-0.2514 1.229108,-1.48694 z m -8.745583,-8.72524 c 0,-1.46951 0,-1.46951 1.4692,-1.46951 1.469211,0 1.469211,0 1.469211,1.46951 0,1.46952 0,1.46952 -1.469211,1.46952 -1.4692,0 -1.4692,0 -1.4692,-1.46952 z m -6.06048,1.46952 0,-2.75535 -1.285561,0 -1.285552,0 -0.107739,2.87032 -0.107749,2.8703 1.393251,-0.11492 1.39325,-0.11492 0,-2.75533 z m 2.938401,-10.2866 c 0,-1.22066 -0.06974,-1.29161 -1.377366,-1.39985 -1.34346,-0.11127 -1.377386,-0.0833 -1.377386,1.13276 0,1.55531 0.240634,1.79924 1.639664,1.66216 1.008723,-0.0988 1.115088,-0.23191 1.115088,-1.39507 z m 50.288719,74.44443 c -0.115646,-0.3013 -0.155784,-0.9319 -0.08931,-1.4012 0.100243,-0.7073 0.340887,-0.8533 1.406425,-0.8533 1.224332,0 1.285552,0.061 1.285552,1.2857 0,1.1828 -0.09593,1.2951 -1.196256,1.4012 -0.802207,0.077 -1.265483,-0.065 -1.406425,-0.4324 z m -58.758067,-2.9127 c -0.109996,-0.2868 -0.150214,-1.5786 -0.08931,-2.8707 l 0.11076,-2.3492 2.754751,0 2.754772,0 0,1.2858 c 0,1.1896 -0.09623,1.2996 -1.285561,1.4695 -1.142713,0.1633 -1.305962,0.3266 -1.469211,1.4696 -0.162406,1.1371 -0.321952,1.2991 -1.379894,1.401 -0.778586,0.075 -1.266105,-0.067 -1.396281,-0.406 z M 0.11899295,1028.3894 c -0.11401035,-0.2973 -0.15299382,-0.9246 -0.08659649,-1.3939 0.1141408,-0.8062 0.27283413,-0.8533 2.87562554,-0.8533 l 2.7547718,0 0,1.2858 0,1.2859 -2.6682556,0.108 c -2.08174744,0.084 -2.71384161,-0.011 -2.87562553,-0.4325 z m 82.28842005,-5.8443 c -0.110006,-0.2868 -0.150204,-1.5786 -0.08931,-2.8707 l 0.110749,-2.3493 1.285571,0 1.285552,0 0,2.7554 0,2.7553 -1.196266,0.1153 c -0.778576,0.075 -1.266095,-0.067 -1.39629,-0.406 z M 17.752246,993.12834 c -0.115646,-0.3013 -0.155783,-0.93181 -0.0893,-1.40114 0.100243,-0.70727 0.340877,-0.85331 1.406415,-0.85331 1.224342,0 1.285561,0.0612 1.285561,1.28582 0,1.18271 -0.09593,1.29507 -1.196255,1.40114 -0.802207,0.0773 -1.265483,-0.0651 -1.406426,-0.43251 z M 0.13783747,987.29252 c -0.09934012,-0.259 -0.13651741,-4.8493 -0.0824824,-10.20068 l 0.09803565,-9.72978 10.10078328,0 10.100794,0 0,10.10291 0,10.10291 -10.018221,0.0978 c -7.8795184,0.0769 -10.05678292,-0.002 -10.19886939,-0.37312 z m 17.27866953,-9.82755 0,-7.16389 -7.162373,0 -7.1623729,0 -0.100464,6.78469 c -0.055189,3.73158 -0.01766,7.00023 0.083385,7.26369 0.1441436,0.37571 1.7104563,0.45747 7.2628079,0.3792 l 7.079006,-0.0999 0,-7.16388 z M 6.0097016,981.40155 C 5.904973,981.12867 5.8667722,979.1807 5.9248109,977.07276 l 0.1053608,-3.83264 4.2239623,0 4.223962,0 0,4.22485 0,4.22485 -4.139021,0.10401 c -3.2102417,0.0807 -4.181748,-0.007 -4.3293734,-0.39222 z m 41.1266504,5.84913 c -0.115646,-0.30128 -0.155783,-0.9318 -0.08931,-1.40114 0.100243,-0.70727 0.340877,-0.85332 1.406416,-0.85332 1.224341,0 1.285551,0.0612 1.285551,1.28583 0,1.18272 -0.09593,1.29509 -1.196246,1.40114 -0.802206,0.0773 -1.265482,-0.0651 -1.406425,-0.4325 z m 17.646518,0.0417 c -0.09934,-0.25899 -0.136517,-4.84928 -0.08258,-10.20067 l 0.09814,-9.72978 10.100783,0 10.100793,0 0,10.10292 0,10.10291 -10.018221,0.0978 c -7.879517,0.0769 -10.056782,-0.003 -10.198869,-0.37314 z m 17.278679,-9.82753 0,-7.16389 -7.162382,0 -7.162373,0 -0.100464,6.78468 c -0.05519,3.73158 -0.01766,7.00023 0.08329,7.26369 0.144144,0.37571 1.710456,0.45747 7.262797,0.3792 l 7.079027,-0.0999 0,-7.16388 z m -11.406814,3.93657 c -0.104729,-0.27289 -0.14293,-2.22084 -0.08489,-4.32879 l 0.105361,-3.83263 4.223962,0 4.223962,0 0,4.22485 0,4.22485 -4.139022,0.104 c -3.210241,0.0807 -4.181737,-0.007 -4.329372,-0.39222 z M 26.567478,969.61643 c -0.115646,-0.30129 -0.155783,-0.93181 -0.08931,-1.40112 0.100243,-0.70729 0.340887,-0.85333 1.406426,-0.85333 1.224342,0 1.285561,0.0612 1.285561,1.28582 0,1.18271 -0.09593,1.29509 -1.196256,1.40114 -0.802206,0.0773 -1.265482,-0.0651 -1.406425,-0.43251 z m 5.876821,0 c -0.115646,-0.30129 -0.155783,-0.93181 -0.08931,-1.40112 0.100244,-0.70729 0.340878,-0.85333 1.406416,-0.85333 1.224342,0 1.285561,0.0612 1.285561,1.28582 0,1.18271 -0.09593,1.29509 -1.196256,1.40114 -0.802206,0.0773 -1.265482,-0.0651 -1.406425,-0.43251 z"
       id="path4239"
       inkscape:connector-curvature="0" />
  </g>
</svg>
